<?xml version="1.0" encoding="UTF-8" standalone="no"?>
<!DOCTYPE svg PUBLIC "-//W3C//DTD SVG 1.1//EN" "http://www.w3.org/Graphics/SVG/1.1/DTD/svg11.dtd">
<svg width="859.64" height="762.00" viewBox="0.00 0.00 1576.00 1397.00" xmlns="http://www.w3.org/2000/svg" xmlns:xlink="http://www.w3.org/1999/xlink">
<g stroke-linecap="round" transform="translate(-247.00, -80.00)" id="Layer_4_3">
<path d="M747.89,513.71 C775.52,506.24 834.86,490.15 866.56,481.54 C882.53,477.12 913.44,468.41 928.38,464.11 C943.80,459.38 973.77,449.84 988.32,445.03 C1002.43,439.98 1031.72,427.64 1045.72,421.17 C1060.08,414.15 1089.38,398.66 1103.96,390.73 C1131.89,374.83 1175.70,346.93 1184.09,342.25 C1190.47,338.82 1203.03,332.88 1211.09,330.05 C1218.47,327.47 1233.63,323.51 1241.75,322.02 C1249.61,320.60 1266.94,318.71 1273.17,318.59 C1278.95,318.49 1295.63,319.73 1303.30,320.84 C1311.82,322.08 1326.53,325.49 1334.43,328.12 C1343.28,331.10 1354.30,336.04 1362.63,340.50 C1368.86,344.01 1381.48,351.81 1387.88,356.09 C1394.32,360.63 1407.06,370.39 1413.34,375.61 C1419.57,381.06 1431.74,392.45 1437.22,398.27 C1447.88,409.94 1468.67,435.86 1478.68,449.90 C1483.24,456.52 1491.57,469.29 1495.34,475.45 C1500.38,484.10 1506.70,496.67 1509.83,504.21 C1512.96,511.83 1516.26,522.54 1518.88,532.93 C1523.74,554.13 1526.37,568.98 1529.58,592.00 C1531.47,607.86 1536.07,648.81 1536.61,655.32 C1537.84,670.68 1540.18,701.62 1541.29,717.21 C1542.12,732.78 1542.93,764.08 1543.14,779.83 C1543.03,795.83 1542.64,827.75 1542.36,843.66 C1541.85,859.16 1540.63,890.31 1539.93,905.96 C1538.95,921.18 1536.01,952.54 1533.95,968.78 C1532.78,976.77 1530.26,992.55 1528.92,1000.33 C1527.42,1007.87 1524.27,1022.99 1522.28,1030.63 C1518.01,1046.17 1507.75,1075.80 1502.27,1090.01 C1499.39,1097.17 1492.52,1111.69 1488.87,1118.94 C1483.39,1129.38 1477.25,1140.02 1472.71,1146.41 C1467.45,1153.78 1458.87,1163.21 1452.11,1169.00 C1446.26,1173.99 1433.07,1183.11 1426.17,1186.83 C1419.06,1190.65 1404.80,1196.41 1396.93,1198.64 C1390.30,1200.46 1377.07,1203.12 1368.63,1204.34 C1362.65,1205.12 1345.17,1206.60 1336.98,1207.00 C1328.62,1207.22 1315.30,1207.24 1304.33,1206.72 C1288.60,1205.63 1255.64,1202.04 1239.03,1200.02 C1223.87,1198.08 1192.06,1193.64 1175.42,1191.15 C1160.29,1188.79 1126.89,1182.56 1117.40,1180.17 C1109.80,1178.17 1094.89,1173.86 1087.58,1171.56 C1080.35,1169.18 1067.09,1163.86 1059.26,1160.21 C1049.02,1155.32 1028.21,1142.20 1006.72,1127.55 C993.76,1118.93 968.49,1102.36 956.17,1094.41 C928.82,1077.30 874.10,1043.00 846.72,1025.80 C819.85,1008.35 779.94,981.92 766.89,972.95 C760.81,968.51 749.22,959.10 743.71,954.14 C739.57,950.30 727.77,938.57 721.35,931.40 C713.90,922.82 677.81,875.34 672.33,869.32 C669.00,865.70 665.36,862.81 662.44,862.17 C659.43,861.60 652.86,862.89 650.22,864.21 C645.14,866.82 635.00,874.15 628.81,879.68 C622.50,885.50 609.91,897.92 603.64,904.50 C597.63,911.00 587.17,923.67 582.06,929.97 C571.80,943.23 550.82,972.43 544.63,982.00 C542.07,986.02 531.55,1005.09 528.77,1011.08 C527.01,1014.90 520.51,1030.99 518.10,1037.50 C515.77,1044.06 511.43,1058.64 509.45,1066.00 C505.82,1081.07 500.74,1104.81 496.47,1128.07 C490.76,1161.29 481.87,1213.93 478.71,1233.35" fill="none" stroke="rgb(255, 255, 255)" stroke-width="340.59" stroke-opacity="1.00" stroke-linejoin="round"/>
<path d="M1009.74,456.94 C1010.93,468.20 1014.36,500.24 1016.52,514.17 C1018.85,527.46 1020.63,535.86 1023.37,546.93 C1025.31,554.27 1029.61,569.19 1031.97,576.77 C1034.92,585.92 1040.21,599.32 1043.71,606.46 C1047.22,613.60 1055.37,627.29 1059.97,633.53 C1064.56,639.74 1074.86,651.58 1080.57,657.21 C1085.50,662.07 1098.78,673.34 1105.06,678.27 C1111.37,683.02 1124.14,691.63 1130.60,695.50 C1136.36,698.92 1152.38,706.27 1159.96,709.07 C1167.47,711.83 1183.73,716.39 1190.54,717.33 C1197.99,718.32 1212.04,717.68 1218.84,716.04 C1224.99,714.52 1238.01,708.02 1243.91,703.62 C1249.85,699.15 1258.21,690.53 1266.05,681.44 C1271.17,675.23 1280.91,662.50 1285.55,655.98 C1288.25,652.10 1299.11,634.04 1303.34,626.41 C1309.19,615.30 1320.85,590.64 1323.52,584.80 C1324.07,583.55 1326.81,577.40 1327.53,572.95 C1327.89,570.63 1328.25,564.64 1328.36,563.15" fill="none" stroke="rgb(255, 255, 255)" stroke-width="340.59" stroke-opacity="1.00" stroke-linejoin="round"/>
<path d="M1202.01,872.61 C1204.12,843.17 1208.77,777.95 1211.33,742.16 C1211.82,735.26 1212.66,723.58 1213.00,718.80" fill="none" stroke="rgb(255, 255, 255)" stroke-width="340.59" stroke-opacity="1.00" stroke-linejoin="round"/>
<path d="M1385.13,1198.56 C1385.13,1198.56 1392.45,1198.56 1392.45,1198.56" fill="none" stroke="rgb(255, 255, 255)" stroke-width="340.59" stroke-opacity="1.00" stroke-linejoin="round"/>
<path d="M1416.26,1196.54 C1416.26,1196.54 1416.26,1196.73 1416.26,1196.73" fill="none" stroke="rgb(255, 255, 255)" stroke-width="340.59" stroke-opacity="1.00" stroke-linejoin="round"/>
<path d="M1192.86,1198.56 C1192.86,1198.56 1115.95,1284.62 1115.95,1284.62" fill="none" stroke="rgb(255, 255, 255)" stroke-width="340.59" stroke-opacity="1.00" stroke-linejoin="round"/>
<path d="M1385.13,1198.56" fill="none" stroke="rgb(255, 255, 255)" stroke-width="340.59" stroke-opacity="1.00" stroke-linejoin="round"/>
<path d="M501.56,1093.27 C494.04,1120.00 475.87,1184.51 465.23,1222.30 C461.47,1235.66 456.31,1254.01 454.90,1258.99" fill="none" stroke="rgb(255, 255, 255)" stroke-width="340.59" stroke-opacity="1.00" stroke-linejoin="round"/>
<path d="M1580.23,465.29 C1573.70,452.15 1556.70,418.71 1551.59,410.04 C1544.65,398.27 1528.91,368.23 1522.93,359.03 C1518.60,352.39 1511.98,344.87 1503.61,336.51 C1498.53,331.72 1486.82,320.88 1482.55,317.55 C1472.75,309.91 1458.09,301.91 1435.17,290.15 C1429.03,286.97 1413.23,278.95 1410.30,277.69 C1404.15,275.07 1370.66,264.71 1357.58,261.15 C1350.51,259.35 1336.04,256.98 1328.74,255.86 C1320.30,254.72 1308.75,254.03 1301.07,254.59 C1286.37,255.72 1268.72,261.53 1254.11,266.62" fill="none" stroke="rgb(255, 255, 255)" stroke-width="45.78" stroke-opacity="1.00" stroke-linejoin="round"/>
<path d="M1175.85,283.14 C1172.93,283.12 1167.74,283.47 1164.78,283.91 C1163.40,284.13 1155.58,286.55 1152.64,285.97 C1148.54,285.16 1141.92,286.00 1137.46,287.25 C1135.86,287.71 1125.55,290.94 1122.54,291.72 C1120.02,292.38 1111.66,294.04 1109.18,295.77 C1106.90,297.40 1100.16,305.49 1098.26,306.80 C1096.37,308.05 1094.38,308.65 1091.32,308.99 C1086.11,309.53 1072.52,314.13 1063.99,317.59 C1053.20,322.23 1023.64,336.87 1010.66,343.08 C997.70,349.04 970.49,361.93 956.25,368.87 C938.58,377.73 926.86,384.19 904.51,397.91 C897.54,402.24 885.82,411.23 881.90,414.96 C874.85,421.84 870.81,425.07 862.36,431.14 C860.01,432.84 855.58,436.52 853.24,439.07 C849.71,442.90 848.07,444.25 843.33,447.22 C841.03,448.68 837.99,454.10 836.71,455.66 C833.69,459.32 816.81,473.66 816.06,474.24 C810.56,478.55 793.34,494.91 791.28,496.87" fill="none" stroke="rgb(255, 255, 255)" stroke-width="45.78" stroke-opacity="1.00" stroke-linejoin="round"/>
<path d="M435.73,882.24 C430.49,899.52 422.18,920.98 416.37,933.79 C405.62,956.03 378.96,1006.48 372.55,1018.61 C368.47,1026.63 363.24,1039.19 360.76,1045.56 C360.50,1046.22 360.24,1046.87 359.99,1047.53" fill="none" stroke="rgb(255, 255, 255)" stroke-width="91.56" stroke-opacity="1.00" stroke-linejoin="round"/>
<path d="M426.58,911.69 C422.68,919.46 393.45,995.24 382.84,1023.47 C377.39,1038.72 365.94,1071.48 362.32,1083.18 C357.78,1099.10 353.42,1117.29 351.98,1124.10 C351.16,1128.53 349.71,1136.75 349.07,1140.54 C348.94,1141.32 348.81,1142.10 348.67,1142.87" fill="none" stroke="rgb(255, 255, 255)" stroke-width="91.56" stroke-opacity="1.00" stroke-linejoin="round"/>
<path d="M417.67,932.54 C412.87,945.07 402.05,973.11 396.03,988.62 C390.15,1003.10 378.60,1031.63 372.94,1045.69 C367.35,1060.01 355.45,1091.33 352.78,1098.89" fill="none" stroke="rgb(255, 255, 255)" stroke-width="91.56" stroke-opacity="1.00" stroke-linejoin="round"/>
<path d="M439.02,899.45 C430.99,911.70 418.37,930.99 413.77,938.03 C411.87,940.93 406.63,949.01 403.28,954.19 C401.33,957.27 398.24,962.13 397.10,963.92" fill="none" stroke="rgb(255, 255, 255)" stroke-width="91.56" stroke-opacity="1.00" stroke-linejoin="round"/>
<path d="M447.04,919.61 C446.41,924.69 441.50,935.19 437.69,942.50 C434.64,948.07 427.22,960.47 423.24,966.92 C419.00,973.58 414.12,981.22 413.49,982.19" fill="none" stroke="rgb(255, 255, 255)" stroke-width="36.62" stroke-opacity="1.00" stroke-linejoin="round"/>
<path d="M452.27,928.33 C446.05,936.83 431.08,963.95 423.76,977.47 C419.49,985.29 410.06,1002.63 409.19,1004.40 C407.66,1007.52 405.86,1012.48 405.02,1015.49 C404.84,1016.17 404.65,1016.85 404.46,1017.53" fill="none" stroke="rgb(255, 255, 255)" stroke-width="36.62" stroke-opacity="1.00" stroke-linejoin="round"/>
<path d="M448.55,937.63 C441.96,952.13 424.36,990.48 421.67,995.04 C420.15,997.59 412.11,1012.97 408.96,1019.17" fill="none" stroke="rgb(255, 255, 255)" stroke-width="36.62" stroke-opacity="1.00" stroke-linejoin="round"/>
<path d="M444.17,951.57 C444.17,951.57 425.58,984.73 425.58,984.73" fill="none" stroke="rgb(255, 255, 255)" stroke-width="36.62" stroke-opacity="1.00" stroke-linejoin="round"/>
<path d="M362.08,1332.47 C362.08,1332.47 362.89,1330.69 362.89,1330.69" fill="none" stroke="rgb(255, 255, 255)" stroke-width="36.62" stroke-opacity="1.00" stroke-linejoin="round"/>
<path d="M355.45,1341.80" fill="none" stroke="rgb(255, 255, 255)" stroke-width="36.62" stroke-opacity="1.00" stroke-linejoin="round"/>
<path d="M355.45,1341.80 L731.37,1331.92" fill="none" stroke="rgb(255, 255, 255)" stroke-width="36.62" stroke-opacity="1.00" stroke-linejoin="round"/>
<path d="M732.06,1331.92" fill="none" stroke="rgb(255, 255, 255)" stroke-width="36.62" stroke-opacity="1.00" stroke-linejoin="round"/>
<path d="M336.86,1341.58" fill="none" stroke="rgb(255, 255, 255)" stroke-width="36.62" stroke-opacity="1.00" stroke-linejoin="round"/>
<path d="M336.86,1341.58 L539.44,1380.74" fill="none" stroke="rgb(255, 255, 255)" stroke-width="36.62" stroke-opacity="1.00" stroke-linejoin="round"/>
<path d="M539.96,1380.43 C539.96,1380.43 539.01,1380.55 539.01,1380.55" fill="none" stroke="rgb(255, 255, 255)" stroke-width="36.62" stroke-opacity="1.00" stroke-linejoin="round"/>
<path d="M626.07,1079.11 C625.17,1079.66 623.94,1080.92 622.74,1082.65 C621.60,1084.34 620.51,1089.91 619.87,1096.09 C619.07,1104.95 619.33,1114.27 620.04,1123.81 C620.65,1130.87 621.83,1141.73 622.22,1144.83" fill="none" stroke="rgb(255, 255, 255)" stroke-width="36.62" stroke-opacity="1.00" stroke-linejoin="round"/>
<path d="M624.35,1081.96 C622.24,1083.60 619.47,1088.20 618.64,1090.66 C617.17,1095.13 612.86,1135.31 611.33,1150.43 C610.69,1159.85 611.36,1167.87 611.60,1170.40" fill="none" stroke="rgb(255, 255, 255)" stroke-width="36.62" stroke-opacity="1.00" stroke-linejoin="round"/>
<path d="M619.16,1105.21 C617.51,1105.73 615.51,1110.07 614.52,1113.96 C613.43,1118.36 611.51,1134.80 611.35,1139.89 C611.16,1146.06 612.52,1180.68 612.99,1185.75 C613.32,1189.30 614.35,1196.49 614.70,1198.95" fill="none" stroke="rgb(255, 255, 255)" stroke-width="36.62" stroke-opacity="1.00" stroke-linejoin="round"/>
<path d="M609.36,1144.73 C608.84,1148.42 609.65,1157.32 611.16,1169.93 C613.16,1186.29 615.71,1207.23 616.25,1211.81 C615.01,1201.31 614.08,1191.31 614.02,1182.65 C614.01,1181.94 614.01,1181.22 614.00,1180.50" fill="none" stroke="rgb(255, 255, 255)" stroke-width="36.62" stroke-opacity="1.00" stroke-linejoin="round"/>
<path d="M627.68,1097.98 C625.84,1099.50 623.47,1103.40 622.59,1106.73 C620.84,1113.52 619.64,1123.31 619.40,1133.31 C619.28,1141.51 619.46,1157.28 620.38,1163.97 C620.84,1167.08 621.97,1173.92 622.63,1177.66 C623.41,1181.70 624.68,1187.22 626.03,1192.68 C626.88,1196.02 628.00,1200.39 628.26,1201.42" fill="none" stroke="rgb(255, 255, 255)" stroke-width="36.62" stroke-opacity="1.00" stroke-linejoin="round"/>
<path d="M613.77,1112.29 C613.77,1112.29 614.39,1108.35 614.39,1108.35 C612.30,1112.37 610.78,1123.69 609.90,1134.79 C609.29,1143.49 608.18,1160.23 607.67,1168.28 C606.97,1180.27 607.11,1187.80 608.29,1196.15 C608.81,1199.60 610.14,1206.61 611.21,1210.02 C611.49,1210.89 612.74,1214.34 613.11,1215.37" fill="none" stroke="rgb(255, 255, 255)" stroke-width="36.62" stroke-opacity="1.00" stroke-linejoin="round"/>
<path d="M620.94,1125.98 C618.98,1128.81 617.06,1133.05 616.13,1137.10 C614.76,1143.27 613.16,1159.61 613.16,1166.08 C613.17,1171.50 614.83,1189.06 615.66,1196.78 C616.46,1203.51 618.63,1212.88 619.23,1215.48" fill="none" stroke="rgb(255, 255, 255)" stroke-width="36.62" stroke-opacity="1.00" stroke-linejoin="round"/>
<path d="M1284.62,1416.43 C1291.40,1413.04 1301.87,1408.84 1309.13,1406.06 C1315.89,1403.63 1328.08,1400.03 1334.97,1398.25 C1364.38,1391.46 1431.67,1376.12 1469.54,1367.57 C1500.20,1360.65 1547.74,1349.91 1554.77,1347.95 C1553.55,1347.65 1546.68,1346.00 1541.30,1345.81 C1535.78,1345.64 1498.73,1349.10 1484.19,1350.87 C1468.89,1352.95 1437.91,1358.00 1422.12,1360.73 C1407.14,1363.67 1377.30,1369.89 1362.43,1373.17 C1346.39,1377.16 1312.92,1385.68 1303.28,1388.44 C1294.66,1390.95 1292.90,1391.75 1288.83,1394.02 C1294.84,1393.57 1331.07,1388.31 1346.70,1385.80 C1378.20,1380.57 1437.60,1371.08 1465.50,1366.81 C1499.50,1362.14 1589.25,1349.98 1592.82,1349.37 C1595.89,1348.84 1602.19,1347.37 1605.05,1346.69 C1586.77,1345.96 1568.00,1346.72 1551.80,1347.77 C1536.57,1349.23 1505.81,1352.51 1490.28,1354.33 C1475.50,1356.41 1445.47,1360.98 1430.21,1363.47 C1393.18,1370.25 1364.22,1376.99 1357.03,1378.80 C1370.48,1375.66 1400.34,1368.73 1416.76,1364.95 C1436.45,1360.80 1460.22,1357.37 1474.42,1355.41 C1507.00,1351.31 1558.24,1344.69 1567.75,1342.96 C1570.11,1342.53 1574.02,1341.93 1575.53,1340.45 C1572.07,1339.54 1568.08,1339.08 1562.44,1338.92 C1546.97,1338.79 1520.43,1340.52 1501.75,1342.51 C1485.71,1344.55 1455.07,1348.74 1441.51,1350.93 C1419.52,1354.91 1367.65,1365.81 1360.85,1367.71 C1364.59,1367.03 1404.52,1357.38 1421.28,1353.41 C1436.88,1350.03 1467.34,1344.26 1481.54,1341.91 C1497.05,1339.60 1527.96,1335.31 1545.01,1333.44 C1595.05,1328.96 1600.90,1329.66 1602.13,1330.01 C1574.01,1335.96 1516.60,1348.59 1487.31,1355.27 C1472.41,1358.97 1442.37,1366.63 1427.24,1370.58 C1412.36,1374.72 1381.51,1383.71 1365.54,1388.55 C1346.04,1394.77 1335.18,1398.57 1334.00,1399.00 C1348.71,1396.02 1380.58,1390.04 1397.75,1387.02 C1412.74,1384.50 1443.69,1379.30 1457.44,1378.07 C1490.31,1375.49 1569.18,1369.47 1583.62,1369.06 C1586.48,1368.97 1595.35,1368.72 1598.22,1368.83 C1581.81,1371.90 1507.91,1387.20 1474.36,1394.18 C1439.67,1401.69 1385.34,1415.12 1355.01,1422.74 C1340.89,1426.57 1321.63,1431.82 1316.49,1433.25 C1325.44,1429.59 1357.80,1419.55 1373.82,1414.59 C1393.39,1408.87 1413.32,1404.22 1426.09,1402.01 C1456.82,1396.87 1525.93,1385.31 1564.30,1378.90 C1578.42,1376.54 1598.99,1373.11 1605.44,1372.03 C1574.17,1377.48 1499.04,1390.74 1480.42,1394.53 C1466.22,1397.78 1436.32,1405.37 1420.54,1409.49 C1388.51,1418.32 1334.57,1434.41 1321.23,1439.00 C1334.18,1434.95 1363.41,1426.10 1379.69,1421.30 C1395.35,1417.01 1426.93,1408.69 1442.27,1405.08 C1457.46,1401.76 1487.36,1395.87 1502.11,1393.06 C1517.99,1390.38 1548.30,1385.50 1564.46,1383.34 C1572.93,1382.40 1592.42,1380.32 1592.96,1380.26 C1597.60,1379.72 1600.53,1379.87 1606.95,1380.65 C1602.88,1382.36 1521.62,1408.77 1487.95,1420.03 C1457.06,1430.91 1396.19,1452.66 1366.99,1463.76 C1365.02,1464.53 1362.27,1465.60 1361.50,1465.90 C1375.75,1459.20 1403.44,1446.56 1416.89,1440.62 C1431.98,1434.28 1461.60,1422.25 1476.13,1416.56 C1490.33,1411.32 1519.70,1400.86 1534.88,1395.63 C1547.71,1391.46 1572.64,1384.10 1581.05,1381.73 C1572.84,1384.13 1542.95,1394.25 1530.78,1398.71 C1517.29,1403.84 1485.97,1416.54 1470.77,1422.83 C1455.27,1429.44 1420.08,1444.63 1409.97,1449.34 C1396.79,1455.81 1369.81,1469.29 1355.66,1476.77 C1339.94,1485.57 1328.23,1493.28 1325.80,1495.06 C1328.47,1494.90 1329.86,1494.67 1331.01,1494.08 C1333.53,1492.80 1371.24,1474.65 1386.37,1467.48 C1389.18,1466.23 1482.64,1432.60 1485.69,1431.37 C1487.52,1430.62 1489.04,1430.76 1491.72,1431.64 C1489.35,1435.81 1487.13,1439.47 1485.30,1441.39 C1482.52,1444.26 1468.29,1453.93 1464.05,1456.19 C1458.76,1459.00 1422.28,1476.77 1408.02,1483.85 C1401.63,1487.21 1387.73,1494.98 1381.38,1498.78 C1375.24,1502.61 1363.82,1510.19 1360.77,1512.72 C1360.77,1512.72 1360.77,1516.29 1360.77,1516.29 C1368.26,1513.42 1398.67,1498.07 1412.56,1490.85 C1426.18,1483.62 1453.86,1469.28 1467.93,1462.17 C1482.53,1455.12 1511.96,1441.33 1528.97,1434.02 C1541.71,1428.89 1557.58,1422.54 1566.33,1419.84 C1560.82,1422.35 1528.28,1438.86 1514.40,1446.15 C1500.07,1453.98 1472.48,1469.30 1459.21,1476.80 C1445.38,1484.86 1417.37,1501.44 1403.19,1509.95 C1386.80,1520.18 1356.10,1541.14 1355.46,1541.93 C1354.96,1542.57 1353.35,1545.32 1352.77,1546.35 C1356.85,1544.88 1367.61,1539.04 1372.96,1536.07 C1400.68,1519.55 1457.04,1485.81 1485.69,1468.59 C1517.42,1450.01 1548.53,1433.46 1554.46,1430.49 C1552.38,1432.04 1478.42,1475.24 1445.40,1494.54 C1417.90,1510.80 1375.46,1536.33 1368.23,1541.34 C1365.83,1543.00 1360.96,1546.72 1359.86,1548.75 C1365.72,1546.96 1416.97,1517.30 1462.54,1492.61 C1495.23,1475.07 1551.44,1444.98 1574.95,1432.43 C1563.98,1437.72 1539.66,1451.05 1526.68,1458.46 C1499.04,1474.80 1435.22,1513.17 1420.72,1522.61 C1404.49,1533.73 1387.10,1546.70 1381.24,1552.56 C1381.24,1552.56 1384.23,1554.41 1384.23,1554.41 C1391.41,1550.90 1398.43,1546.66 1404.51,1542.31 C1431.97,1522.52 1498.27,1474.74 1507.05,1468.90 C1519.49,1460.96 1538.30,1449.28 1544.66,1445.53 C1547.92,1443.63 1550.12,1442.74 1554.59,1441.24 C1552.59,1443.06 1542.52,1451.27 1536.46,1456.85 C1525.34,1467.36 1502.80,1489.00 1491.61,1500.28 C1481.19,1511.35 1459.30,1535.17 1447.83,1547.93 C1440.26,1556.52 1434.65,1563.19 1432.00,1567.20 C1428.98,1571.87 1428.54,1573.93 1428.53,1576.48 C1432.82,1575.67 1436.68,1574.67 1438.99,1572.99 C1442.35,1570.49 1453.25,1558.23 1457.72,1551.81 C1461.71,1546.06 1480.92,1514.59 1489.47,1498.55 C1496.95,1483.75 1512.20,1452.56 1518.13,1439.23 C1519.16,1436.92 1521.54,1431.09 1522.58,1428.63 C1523.57,1426.12 1523.89,1421.53 1523.99,1419.35 C1521.14,1422.84 1513.48,1434.52 1510.34,1440.34 C1507.13,1446.40 1499.33,1462.34 1495.62,1470.09 C1492.15,1477.76 1484.31,1495.67 1482.29,1501.06 C1480.12,1506.86 1474.98,1524.27 1473.91,1528.79 C1473.03,1532.48 1470.15,1548.12 1470.70,1549.76 C1471.04,1550.76 1472.66,1553.32 1473.97,1555.26 C1476.21,1554.29 1479.41,1552.74 1480.52,1551.90 C1482.20,1550.61 1486.11,1543.35 1487.65,1540.42 C1491.61,1532.67 1494.43,1524.03 1497.54,1512.92 C1499.59,1505.38 1503.55,1490.82 1505.65,1483.61 C1509.03,1472.69 1512.41,1463.91 1514.70,1460.68 C1515.84,1459.10 1517.73,1456.48 1518.49,1455.44 C1519.61,1458.74 1519.72,1463.26 1519.03,1468.61 C1518.08,1475.28 1509.07,1522.17 1508.77,1531.09 C1508.66,1534.87 1508.87,1539.92 1509.49,1544.03 C1509.77,1545.82 1510.54,1546.97 1512.44,1548.80 C1514.67,1547.66 1516.62,1545.30 1518.62,1541.02 C1520.49,1536.95 1526.40,1521.44 1529.16,1512.57 C1533.63,1496.81 1541.17,1470.19 1544.60,1461.92 C1543.41,1470.45 1536.30,1502.97 1533.12,1517.49 C1531.69,1524.54 1529.97,1538.92 1529.66,1547.52 C1529.33,1557.00 1530.52,1570.19 1532.05,1571.88 C1535.73,1557.77 1546.08,1518.91 1548.52,1511.29 C1550.28,1505.84 1554.64,1496.90 1556.47,1494.12 C1556.47,1494.12 1559.16,1494.50 1559.16,1494.50 C1559.86,1499.07 1561.80,1516.73 1562.67,1525.01 C1563.15,1529.36 1563.74,1531.84 1565.69,1535.12 C1566.14,1535.87 1566.60,1536.63 1567.05,1537.38 C1567.05,1537.38 1570.03,1537.61 1570.03,1537.61 C1571.97,1535.13 1574.17,1531.31 1575.19,1528.26 C1577.03,1522.59 1578.46,1508.32 1578.28,1498.58 C1578.03,1489.09 1575.96,1478.12 1574.20,1472.93 C1573.36,1470.50 1570.50,1464.44 1568.44,1462.03 C1566.41,1459.71 1560.57,1456.66 1557.21,1455.93 C1552.45,1454.94 1538.31,1455.54 1529.81,1457.13 C1508.94,1461.17 1492.05,1466.75 1488.23,1468.44 C1492.34,1467.00 1509.26,1457.26 1513.57,1454.51 C1519.23,1450.89 1532.83,1440.90 1538.62,1436.31 C1545.25,1430.86 1553.54,1423.11 1561.81,1414.82 C1569.37,1407.13 1572.23,1403.86 1575.11,1398.54 C1574.41,1396.42 1573.87,1395.41 1572.90,1394.86 C1570.11,1393.32 1563.58,1389.59 1562.31,1387.25 C1562.16,1386.94 1561.93,1386.38 1561.63,1385.58 C1561.63,1385.58 1567.67,1377.60 1567.67,1377.60 C1567.67,1377.60 1552.62,1382.33 1552.62,1382.33 C1560.29,1375.10 1566.46,1368.81 1572.51,1362.01 C1577.89,1355.82 1579.32,1352.79 1580.45,1349.98 C1578.40,1349.72 1577.29,1349.75 1575.93,1350.24 C1572.38,1351.53 1555.86,1359.25 1548.46,1362.75 C1538.16,1367.46 1532.87,1369.37 1524.37,1372.03 C1528.45,1368.92 1540.64,1360.09 1546.54,1355.64 C1551.87,1351.41 1562.90,1341.99 1568.46,1337.10 C1574.84,1331.42 1582.10,1323.67 1585.74,1319.76 C1583.74,1318.80 1582.46,1318.60 1580.44,1319.17 C1572.73,1321.32 1564.44,1324.90 1554.16,1330.85 C1546.93,1335.15 1532.38,1343.70 1525.67,1347.44 C1517.08,1352.05 1502.46,1358.69 1499.33,1359.92 C1499.27,1359.29 1532.44,1341.33 1547.10,1333.51 C1554.46,1329.75 1569.21,1322.19 1571.83,1320.14 C1568.62,1320.14 1563.84,1321.37 1561.03,1322.08 C1554.22,1323.84 1535.45,1330.82 1528.26,1333.62 C1512.89,1339.98 1488.14,1350.14 1481.60,1352.49 C1481.60,1352.49 1567.34,1313.82 1567.34,1313.82 C1562.78,1313.63 1549.15,1317.15 1540.08,1320.13 C1526.06,1325.01 1499.77,1336.76 1486.09,1343.06 C1478.76,1346.35 1469.59,1350.25 1467.46,1351.14 C1473.44,1347.64 1508.70,1331.99 1519.69,1327.88 C1527.46,1325.18 1541.49,1320.37 1547.76,1318.26 C1540.47,1319.78 1460.77,1344.51 1427.72,1354.81 C1412.03,1359.67 1374.39,1371.18 1367.28,1372.87 C1361.18,1374.30 1350.82,1375.90 1338.77,1377.27 C1329.57,1378.25 1323.13,1378.19 1310.63,1377.75 C1302.68,1377.38 1287.78,1376.62 1280.44,1376.40 C1272.85,1376.27 1263.13,1376.65 1260.52,1376.77" fill="none" stroke="rgb(255, 255, 255)" stroke-width="36.62" stroke-opacity="1.00" stroke-linejoin="round"/>
<path d="M1305.46,1355.52 C1314.11,1358.75 1325.94,1361.16 1332.29,1361.97 C1337.82,1362.66 1352.01,1362.93 1359.34,1362.30 C1373.89,1360.87 1404.94,1357.14 1419.86,1355.25 C1428.05,1354.24 1443.91,1352.33 1451.57,1351.42 C1453.27,1351.22 1456.09,1350.89 1457.22,1350.76" fill="none" stroke="rgb(255, 255, 255)" stroke-width="36.62" stroke-opacity="1.00" stroke-linejoin="round"/>
<path d="M1053.55,1321.13" fill="none" stroke="rgb(255, 255, 255)" stroke-width="36.62" stroke-opacity="1.00" stroke-linejoin="round"/>
<path d="M1053.72,1321.85 L1185.09,1355.96" fill="none" stroke="rgb(255, 255, 255)" stroke-width="36.62" stroke-opacity="1.00" stroke-linejoin="round"/>
<path d="M1185.09,1355.96 C1185.09,1355.96 1184.98,1354.00 1184.98,1354.00" fill="none" stroke="rgb(255, 255, 255)" stroke-width="36.62" stroke-opacity="1.00" stroke-linejoin="round"/>
<path d="M1184.98,1354.00 L1449.39,1355.05" fill="none" stroke="rgb(255, 255, 255)" stroke-width="36.62" stroke-opacity="1.00" stroke-linejoin="round"/>
<path d="M1448.85,1355.19 C1448.85,1355.19 1449.93,1354.90 1449.93,1354.90" fill="none" stroke="rgb(255, 255, 255)" stroke-width="36.62" stroke-opacity="1.00" stroke-linejoin="round"/>
<path d="M1449.93,1354.90 L1625.78,1294.03" fill="none" stroke="rgb(255, 255, 255)" stroke-width="36.62" stroke-opacity="1.00" stroke-linejoin="round"/>
<path d="M1626.32,1293.67" fill="none" stroke="rgb(255, 255, 255)" stroke-width="36.62" stroke-opacity="1.00" stroke-linejoin="round"/>
<path d="M1071.32,1334.71 C1071.32,1334.71 1073.22,1333.72 1073.22,1333.72" fill="none" stroke="rgb(255, 255, 255)" stroke-width="36.62" stroke-opacity="1.00" stroke-linejoin="round"/>
<path d="M1073.22,1333.72 L1541.10,1332.71" fill="none" stroke="rgb(255, 255, 255)" stroke-width="36.62" stroke-opacity="1.00" stroke-linejoin="round"/>
<path d="M1541.10,1332.71" fill="none" stroke="rgb(255, 255, 255)" stroke-width="36.62" stroke-opacity="1.00" stroke-linejoin="round"/>
<path d="M549.44,1238.83 C549.44,1238.83 550.65,1221.36 550.65,1221.36" fill="none" stroke="rgb(255, 255, 255)" stroke-width="54.93" stroke-opacity="1.00" stroke-linejoin="round"/>
<path d="M575.92,1087.97 C572.63,1120.27 567.98,1167.90 566.62,1183.25 C566.24,1188.64 566.20,1194.73 567.27,1197.29 C568.63,1200.57 569.42,1205.02 569.48,1209.63 C569.53,1219.12 570.45,1228.87 572.31,1238.29 C573.91,1245.69 577.09,1259.88 579.06,1267.73 C581.10,1275.55 587.21,1288.12 592.30,1296.32 C594.35,1299.59 597.75,1305.02 599.10,1307.17 C596.28,1307.07 588.12,1306.76 585.10,1306.14 C581.36,1305.36 575.28,1302.80 571.49,1300.53 C567.86,1298.36 561.72,1296.32 558.22,1295.97 C556.71,1295.84 513.00,1298.89 498.00,1299.32 C490.42,1299.38 473.22,1299.06 469.26,1298.80 C462.05,1298.32 453.26,1296.95 442.37,1294.98 C429.99,1292.69 420.48,1290.22 415.68,1289.76 C406.90,1288.95 400.43,1288.81 398.33,1288.94 C399.65,1285.88 414.19,1232.66 415.31,1227.12 C415.56,1225.84 415.97,1223.72 416.14,1222.88" fill="none" stroke="rgb(255, 255, 255)" stroke-width="54.93" stroke-opacity="1.00" stroke-linejoin="round"/>
<path d="M409.58,1176.32 C407.53,1195.22 406.05,1218.34 405.55,1237.60 C404.65,1256.79 402.57,1281.92 402.55,1283.12 C402.49,1285.63 402.82,1293.45 401.78,1298.28 C401.55,1299.41 401.31,1300.54 401.08,1301.67 C407.00,1300.35 420.25,1297.45 429.59,1295.96 C437.90,1294.79 456.99,1292.62 460.59,1292.44 C461.26,1292.41 502.25,1294.15 515.67,1294.44 C536.66,1295.23 584.34,1294.97 587.44,1295.06" fill="none" stroke="rgb(255, 255, 255)" stroke-width="54.93" stroke-opacity="1.00" stroke-linejoin="round"/>
<path d="M363.66,1255.51 C363.64,1258.65 363.60,1265.23 363.58,1268.67 C363.55,1273.66 362.71,1291.31 362.27,1299.45 C361.85,1307.00 361.25,1318.28 361.06,1322.01" fill="none" stroke="rgb(255, 255, 255)" stroke-width="36.62" stroke-opacity="1.00" stroke-linejoin="round"/>
<path d="M550.71,1338.48" fill="none" stroke="rgb(255, 255, 255)" stroke-width="36.62" stroke-opacity="1.00" stroke-linejoin="round"/>
<path d="M550.71,1338.48 L676.93,1343.25" fill="none" stroke="rgb(255, 255, 255)" stroke-width="36.62" stroke-opacity="1.00" stroke-linejoin="round"/>
<path d="M677.11,1343.25" fill="none" stroke="rgb(255, 255, 255)" stroke-width="36.62" stroke-opacity="1.00" stroke-linejoin="round"/>
<path d="M628.73,1259.44 C628.73,1259.44 632.71,1286.17 632.71,1286.17" fill="none" stroke="rgb(255, 255, 255)" stroke-width="36.62" stroke-opacity="1.00" stroke-linejoin="round"/>
<path d="M623.60,1260.85 C624.61,1267.93 626.85,1283.29 628.08,1291.57 C628.74,1295.73 631.92,1311.02 633.71,1318.45 C634.22,1320.44 635.06,1323.69 635.38,1324.97" fill="none" stroke="rgb(255, 255, 255)" stroke-width="36.62" stroke-opacity="1.00" stroke-linejoin="round"/>
<path d="M626.18,1270.76 C629.19,1288.74 633.62,1309.25 635.55,1317.08 C637.23,1323.58 639.13,1330.93 639.35,1331.77" fill="none" stroke="rgb(255, 255, 255)" stroke-width="36.62" stroke-opacity="1.00" stroke-linejoin="round"/>
<path d="M621.98,1252.27 C624.34,1268.90 627.45,1283.17 629.09,1289.64 C631.23,1297.26 634.11,1306.76 634.50,1308.02" fill="none" stroke="rgb(255, 255, 255)" stroke-width="36.62" stroke-opacity="1.00" stroke-linejoin="round"/>
<path d="M615.93,1253.10 C617.71,1258.96 621.39,1271.49 623.30,1278.18 C626.39,1288.05 630.34,1298.98 632.91,1305.97 C634.15,1309.57 635.77,1314.30 636.16,1315.43" fill="none" stroke="rgb(255, 255, 255)" stroke-width="36.62" stroke-opacity="1.00" stroke-linejoin="round"/>
<path d="M663.98,987.10 C661.10,988.52 658.42,991.14 654.96,994.99 C644.84,1006.81 624.97,1029.81 615.22,1040.98 C603.81,1054.29 563.51,1106.07 557.24,1115.03" fill="none" stroke="rgb(255, 255, 255)" stroke-width="54.93" stroke-opacity="1.00" stroke-linejoin="round"/>
<path d="M637.43,760.24 C637.43,760.24 636.09,760.29 636.09,760.29 C636.87,759.21 641.46,757.24 644.75,756.32 C650.86,754.65 669.92,753.03 673.15,752.97 C675.74,752.93 693.81,754.15 700.26,755.49 C706.99,756.93 720.66,762.18 725.87,765.17 C730.96,768.12 742.52,776.92 746.37,780.92 C748.18,782.81 753.97,789.84 755.57,792.90 C756.78,795.24 758.69,801.70 759.12,803.18" fill="none" stroke="rgb(255, 255, 255)" stroke-width="54.93" stroke-opacity="1.00" stroke-linejoin="round"/>
<path d="M956.55,964.40 C958.92,966.65 973.49,976.08 979.10,980.58 C984.54,984.96 993.17,993.37 1000.80,1001.50 C1005.91,1007.18 1014.33,1016.43 1021.02,1023.05 C1027.22,1028.93 1037.52,1037.42 1043.83,1041.88 C1052.44,1047.94 1080.04,1062.77 1090.42,1067.31 C1108.45,1074.92 1134.75,1084.50 1148.76,1088.65 C1162.87,1092.49 1191.17,1099.13 1205.05,1101.89 C1210.59,1102.89 1217.40,1104.11 1220.24,1104.66" fill="none" stroke="rgb(255, 255, 255)" stroke-width="54.93" stroke-opacity="1.00" stroke-linejoin="round"/>
<path d="M978.32,991.64 C987.11,997.46 997.40,1005.11 1000.69,1007.34 C1011.91,1014.91 1037.98,1027.55 1050.42,1032.32 C1056.14,1034.51 1095.14,1046.90 1109.01,1051.27 C1113.77,1052.84 1160.44,1069.63 1166.53,1071.58 C1172.75,1073.44 1187.37,1077.33 1194.86,1078.83 C1202.18,1080.18 1216.74,1082.53 1223.44,1083.43 C1226.00,1083.73 1229.37,1084.14 1230.17,1084.24" fill="none" stroke="rgb(255, 255, 255)" stroke-width="54.93" stroke-opacity="1.00" stroke-linejoin="round"/>
<path d="M881.09,1169.39 C888.04,1173.13 919.80,1193.05 932.06,1201.98 C941.29,1208.88 968.86,1231.38 977.65,1238.09 C984.66,1243.19 993.27,1248.94 1001.67,1253.76 C1015.62,1261.33 1048.36,1279.06 1053.51,1281.71 C1074.93,1292.11 1087.47,1297.22 1093.85,1299.29 C1096.13,1300.01 1099.75,1301.13 1101.07,1301.53" fill="none" stroke="rgb(255, 255, 255)" stroke-width="54.93" stroke-opacity="1.00" stroke-linejoin="round"/>
<path d="M1637.77,1114.01 C1636.75,1122.28 1635.60,1129.51 1632.95,1140.93 C1630.91,1149.20 1626.74,1165.71 1624.88,1170.64 C1620.75,1181.51 1602.80,1215.82 1598.85,1223.95 C1595.37,1230.83 1587.95,1242.41 1583.61,1248.11 C1579.65,1253.15 1573.86,1260.39 1572.04,1262.58" fill="none" stroke="rgb(255, 255, 255)" stroke-width="54.93" stroke-opacity="1.00" stroke-linejoin="round"/>
<path d="M1544.29,1263.61 C1543.36,1265.14 1541.43,1267.78 1538.25,1271.85 C1533.04,1278.37 1528.01,1283.78 1527.26,1284.59" fill="none" stroke="rgb(255, 255, 255)" stroke-width="54.93" stroke-opacity="1.00" stroke-linejoin="round"/>
<path d="M1416.13,933.15 C1416.13,933.15 1415.97,931.71 1415.97,931.71 C1413.66,936.19 1398.93,970.72 1393.05,984.60 C1386.82,998.41 1371.35,1033.21 1368.65,1037.67 C1365.82,1042.31 1356.10,1054.60 1350.95,1061.06 C1346.51,1066.47 1338.35,1076.34 1333.27,1080.71 C1328.75,1084.54 1317.53,1091.39 1311.24,1094.07 C1309.80,1094.68 1301.65,1097.82 1298.31,1099.07 C1296.47,1099.77 1295.34,1100.13 1293.16,1100.73" fill="none" stroke="rgb(255, 255, 255)" stroke-width="54.93" stroke-opacity="1.00" stroke-linejoin="round"/>
<path d="M1303.30,663.46 C1303.84,670.22 1302.78,678.54 1300.65,689.96 C1298.96,698.30 1294.85,718.18 1293.93,721.69 C1292.57,726.61 1288.07,741.61 1285.07,745.87 C1283.38,748.21 1270.84,760.80 1264.82,766.81 C1256.26,775.52 1246.24,787.65 1245.94,788.01 C1243.16,791.30 1222.84,811.81 1222.01,812.19 C1218.58,811.05 1185.31,791.15 1173.66,782.44 C1172.40,781.50 1162.93,774.35 1161.97,773.72 C1164.72,776.44 1176.99,790.05 1180.91,795.16 C1182.28,796.95 1187.46,804.11 1189.15,806.43 C1189.37,806.72 1189.69,807.14 1190.11,807.69" fill="none" stroke="rgb(255, 255, 255)" stroke-width="54.93" stroke-opacity="1.00" stroke-linejoin="round"/>
<path d="M892.06,512.18 C897.47,514.40 908.72,522.39 916.04,528.66 C917.77,530.17 924.45,536.38 925.32,537.25 C928.86,540.80 931.20,543.45 932.42,544.89" fill="none" stroke="rgb(255, 255, 255)" stroke-width="54.93" stroke-opacity="1.00" stroke-linejoin="round"/>
<path d="M1146.37,447.25 C1146.37,447.25 1149.72,445.85 1149.72,445.85 C1147.09,448.86 1113.82,477.99 1108.26,484.08 C1095.46,498.17 1088.81,509.23 1087.58,511.74 C1086.82,513.30 1086.67,514.44 1086.86,515.99" fill="none" stroke="rgb(255, 255, 255)" stroke-width="54.93" stroke-opacity="1.00" stroke-linejoin="round"/>
<path d="M1101.02,572.63 C1101.02,572.63 1101.69,570.89 1101.69,570.89 C1103.82,573.50 1109.97,592.49 1110.93,595.21 C1116.10,609.82 1122.27,621.77 1123.99,624.80" fill="none" stroke="rgb(255, 255, 255)" stroke-width="54.93" stroke-opacity="1.00" stroke-linejoin="round"/>
<path d="M877.75,418.57 C880.18,416.25 895.78,403.67 898.33,401.98 C902.29,399.36 940.33,378.42 955.13,370.32 C961.94,366.57 974.24,358.95 978.34,355.50 C986.24,348.75 996.36,341.94 1004.12,337.73 C1017.88,330.44 1036.54,318.47 1052.91,310.40 C1078.83,298.12 1119.68,281.68 1131.09,276.88 C1161.36,265.97 1194.58,254.65 1197.44,253.77" fill="none" stroke="rgb(255, 255, 255)" stroke-width="54.93" stroke-opacity="1.00" stroke-linejoin="round"/>
<path d="M985.91,619.10 C985.48,618.92 985.25,618.94 985.21,619.16 C984.83,621.49 990.22,635.41 993.20,641.17 C996.06,646.64 1006.32,660.91 1008.96,664.26 C1020.68,678.66 1028.51,685.62 1032.75,689.15" fill="none" stroke="rgb(255, 255, 255)" stroke-width="54.93" stroke-opacity="1.00" stroke-linejoin="round"/>
<path d="M995.91,673.92 C996.81,674.73 997.42,675.24 998.78,676.32 C1007.77,683.38 1023.01,692.79 1026.83,694.98" fill="none" stroke="rgb(255, 255, 255)" stroke-width="54.93" stroke-opacity="1.00" stroke-linejoin="round"/>
<path d="M1658.62,1148.48 C1657.29,1155.60 1654.45,1170.20 1653.03,1176.62 C1650.05,1189.82 1646.83,1204.01 1646.60,1204.99" fill="none" stroke="rgb(255, 255, 255)" stroke-width="36.62" stroke-opacity="1.00" stroke-linejoin="round"/>
<path d="M1673.00,1095.25 C1673.00,1095.25 1665.11,1144.82 1665.11,1144.82" fill="none" stroke="rgb(255, 255, 255)" stroke-width="36.62" stroke-opacity="1.00" stroke-linejoin="round"/>
<path d="M1669.62,1097.18 C1669.53,1101.47 1668.26,1116.20 1666.99,1124.85 C1665.68,1132.62 1663.95,1142.88 1663.51,1145.36" fill="none" stroke="rgb(255, 255, 255)" stroke-width="36.62" stroke-opacity="1.00" stroke-linejoin="round"/>
<path d="M1667.14,1109.74 C1666.81,1112.54 1665.97,1119.67 1665.47,1124.00 C1664.97,1128.09 1663.66,1138.46 1663.20,1141.51 C1663.02,1142.68 1662.43,1146.03 1662.25,1147.04" fill="none" stroke="rgb(255, 255, 255)" stroke-width="36.62" stroke-opacity="1.00" stroke-linejoin="round"/>
<path d="M1643.85,1206.26 C1643.72,1209.49 1640.18,1222.54 1637.83,1228.93 C1636.28,1233.12 1629.67,1249.00 1625.34,1257.51 C1623.25,1261.54 1620.50,1266.83 1619.85,1268.10" fill="none" stroke="rgb(255, 255, 255)" stroke-width="36.62" stroke-opacity="1.00" stroke-linejoin="round"/>
<path d="M1643.05,1220.25 C1641.27,1224.45 1634.80,1235.85 1629.26,1244.69 C1624.87,1251.42 1616.08,1264.69 1611.69,1271.24 C1609.55,1274.30 1606.15,1279.17 1604.89,1280.97" fill="none" stroke="rgb(255, 255, 255)" stroke-width="36.62" stroke-opacity="1.00" stroke-linejoin="round"/>
<path d="M1633.70,1237.40 C1631.96,1239.22 1629.93,1241.61 1626.51,1245.76 C1612.73,1262.55 1601.38,1275.48 1594.98,1282.06 C1589.26,1287.85 1585.09,1291.54 1584.40,1292.15" fill="none" stroke="rgb(255, 255, 255)" stroke-width="36.62" stroke-opacity="1.00" stroke-linejoin="round"/>
<path d="M1634.97,1236.06 C1632.44,1238.27 1622.41,1249.28 1617.12,1255.18 C1612.23,1260.82 1602.40,1271.94 1597.41,1277.30 C1591.49,1283.45 1585.85,1288.67 1575.44,1297.89 C1572.47,1300.58 1567.55,1305.09 1565.59,1306.90" fill="none" stroke="rgb(255, 255, 255)" stroke-width="36.62" stroke-opacity="1.00" stroke-linejoin="round"/>
<path d="M1634.39,1235.49 C1634.39,1235.49 1635.40,1233.72 1635.40,1233.72 C1631.12,1238.52 1621.70,1248.96 1616.56,1254.62 C1599.87,1272.77 1591.28,1281.05 1574.07,1295.81 C1571.43,1298.12 1564.88,1303.91 1562.33,1306.48 C1561.51,1307.32 1559.20,1310.00 1558.50,1310.82" fill="none" stroke="rgb(255, 255, 255)" stroke-width="36.62" stroke-opacity="1.00" stroke-linejoin="round"/>
<path d="M1641.42,1226.81 C1634.17,1233.07 1611.87,1257.19 1601.14,1268.87 C1589.61,1280.92 1569.13,1301.08 1567.02,1303.21" fill="none" stroke="rgb(255, 255, 255)" stroke-width="36.62" stroke-opacity="1.00" stroke-linejoin="round"/>
<path d="M1565.77,1318.97 C1563.63,1319.29 1552.45,1323.30 1540.49,1326.61 C1532.66,1328.95 1518.11,1333.68 1514.26,1335.13" fill="none" stroke="rgb(255, 255, 255)" stroke-width="36.62" stroke-opacity="1.00" stroke-linejoin="round"/>
<path d="M1500.93,1331.32 C1502.37,1331.57 1506.01,1332.20 1508.20,1332.57 C1510.65,1332.98 1514.23,1333.43 1516.27,1333.58 C1516.81,1333.62 1517.57,1333.66 1518.55,1333.69" fill="none" stroke="rgb(255, 255, 255)" stroke-width="36.62" stroke-opacity="1.00" stroke-linejoin="round"/>
<path d="M1125.02,1338.51" fill="none" stroke="rgb(255, 255, 255)" stroke-width="36.62" stroke-opacity="1.00" stroke-linejoin="round"/>
<path d="M1121.81,1333.15" fill="none" stroke="rgb(255, 255, 255)" stroke-width="36.62" stroke-opacity="1.00" stroke-linejoin="round"/>
<path d="M1121.81,1333.15 L1059.22,1335.23" fill="none" stroke="rgb(255, 255, 255)" stroke-width="36.62" stroke-opacity="1.00" stroke-linejoin="round"/>
<path d="M1059.22,1335.23" fill="none" stroke="rgb(255, 255, 255)" stroke-width="36.62" stroke-opacity="1.00" stroke-linejoin="round"/>
<path d="M842.34,1184.45" fill="none" stroke="rgb(255, 255, 255)" stroke-width="36.62" stroke-opacity="1.00" stroke-linejoin="round"/>
<path d="M842.34,1184.45 L962.76,1273.65" fill="none" stroke="rgb(255, 255, 255)" stroke-width="36.62" stroke-opacity="1.00" stroke-linejoin="round"/>
<path d="M962.76,1273.65 C962.76,1273.65 962.21,1274.37 962.21,1274.37" fill="none" stroke="rgb(255, 255, 255)" stroke-width="36.62" stroke-opacity="1.00" stroke-linejoin="round"/>
<path d="M962.21,1274.37 L1089.72,1343.88" fill="none" stroke="rgb(255, 255, 255)" stroke-width="36.62" stroke-opacity="1.00" stroke-linejoin="round"/>
<path d="M1089.72,1343.88" fill="none" stroke="rgb(255, 255, 255)" stroke-width="36.62" stroke-opacity="1.00" stroke-linejoin="round"/>
<path d="M1099.15,1341.40 C1095.66,1339.26 1088.72,1336.60 1084.70,1335.07 C1080.92,1333.68 1073.79,1331.07 1070.44,1329.86 C1069.75,1329.60 1069.06,1329.35 1068.36,1329.10" fill="none" stroke="rgb(255, 255, 255)" stroke-width="36.62" stroke-opacity="1.00" stroke-linejoin="round"/>
<path d="M1284.92,1044.73 C1284.92,1044.73 1285.97,1043.52 1285.97,1043.52 C1286.00,1050.72 1284.67,1054.64 1283.75,1055.43 C1283.41,1055.71 1282.63,1056.13 1281.40,1056.69" fill="none" stroke="rgb(255, 255, 255)" stroke-width="36.62" stroke-opacity="1.00" stroke-linejoin="round"/>
<path d="M1298.70,1041.22 C1299.86,1042.08 1301.04,1045.51 1300.61,1048.14 C1300.16,1050.63 1297.63,1055.47 1296.23,1056.60 C1295.02,1057.55 1293.89,1058.24 1292.84,1058.68 C1292.24,1058.92 1291.18,1059.17 1289.65,1059.42" fill="none" stroke="rgb(255, 255, 255)" stroke-width="36.62" stroke-opacity="1.00" stroke-linejoin="round"/>
<path d="M1305.05,1047.20 C1304.51,1050.44 1302.26,1055.11 1300.24,1056.52 C1299.95,1056.72 1299.30,1057.11 1298.32,1057.67" fill="none" stroke="rgb(255, 255, 255)" stroke-width="36.62" stroke-opacity="1.00" stroke-linejoin="round"/>
<path d="M1307.58,1049.83 C1307.76,1051.94 1302.95,1060.97 1302.47,1061.40 C1302.19,1061.63 1301.62,1061.86 1300.76,1062.08" fill="none" stroke="rgb(255, 255, 255)" stroke-width="36.62" stroke-opacity="1.00" stroke-linejoin="round"/>
<path d="M1307.17,1051.65 C1306.02,1053.59 1300.48,1059.25 1300.20,1059.51 C1300.07,1059.63 1300.02,1059.65 1300.05,1059.58" fill="none" stroke="rgb(255, 255, 255)" stroke-width="36.62" stroke-opacity="1.00" stroke-linejoin="round"/>
<path d="M1304.17,1057.53 C1301.50,1060.32 1300.64,1060.77 1294.80,1062.64 C1292.07,1063.47 1288.22,1063.56 1285.50,1063.69 C1281.90,1063.76 1270.26,1062.68 1269.81,1062.67 C1269.26,1062.67 1252.51,1062.84 1248.30,1063.47 C1248.30,1063.47 1251.05,1063.81 1251.05,1063.81 C1242.32,1062.84 1233.32,1060.43 1229.45,1060.09 C1215.43,1058.90 1201.62,1054.30 1185.67,1048.53 C1180.20,1047.01 1167.34,1041.38 1164.15,1040.17 C1154.36,1036.53 1142.03,1032.86 1139.50,1031.75 C1136.23,1030.18 1120.39,1023.10 1116.84,1021.39 C1109.75,1018.24 1099.12,1014.22 1097.49,1013.40 C1093.20,1011.21 1084.80,1007.41 1078.81,1004.24 C1077.52,1003.56 1069.68,999.90 1069.27,999.52 C1069.05,999.32 1068.72,998.90 1068.26,998.27" fill="none" stroke="rgb(255, 255, 255)" stroke-width="36.62" stroke-opacity="1.00" stroke-linejoin="round"/>
<path d="M964.32,916.24 C971.26,921.93 977.95,926.87 986.37,932.49 C996.92,939.45 1008.61,944.78 1010.02,945.40" fill="none" stroke="rgb(255, 255, 255)" stroke-width="36.62" stroke-opacity="1.00" stroke-linejoin="round"/>
<path d="M957.77,921.91 C961.09,925.02 970.16,931.44 978.67,936.68 C987.00,941.58 997.12,946.94 1004.52,950.26 C1009.30,952.35 1011.59,953.26 1013.40,953.98" fill="none" stroke="rgb(255, 255, 255)" stroke-width="36.62" stroke-opacity="1.00" stroke-linejoin="round"/>
<path d="M958.32,926.79 C962.80,930.52 972.21,936.16 980.38,940.66 C984.21,942.71 1001.93,951.02 1005.50,952.48 C1011.01,954.71 1023.33,958.48 1026.85,959.29" fill="none" stroke="rgb(255, 255, 255)" stroke-width="36.62" stroke-opacity="1.00" stroke-linejoin="round"/>
<path d="M950.57,925.70 C954.49,929.16 966.91,937.15 974.55,941.27 C987.35,947.95 1007.11,956.70 1013.76,959.51 C1017.05,960.83 1028.80,964.99 1029.96,965.40" fill="none" stroke="rgb(255, 255, 255)" stroke-width="36.62" stroke-opacity="1.00" stroke-linejoin="round"/>
<path d="M949.44,921.86 C953.19,925.29 982.45,942.83 996.14,950.93 C1002.70,954.69 1005.77,956.35 1009.71,958.34 C1016.91,961.89 1026.90,966.80 1029.68,968.16" fill="none" stroke="rgb(255, 255, 255)" stroke-width="36.62" stroke-opacity="1.00" stroke-linejoin="round"/>
<path d="M963.93,934.52 C964.53,936.57 968.30,940.34 970.26,941.73 C978.09,947.16 1005.93,960.80 1022.30,967.94 C1029.99,971.11 1042.64,976.29 1047.61,978.29" fill="none" stroke="rgb(255, 255, 255)" stroke-width="36.62" stroke-opacity="1.00" stroke-linejoin="round"/>
<path d="M951.34,921.06 C958.47,927.18 964.39,932.00 972.30,937.85 C978.40,942.18 993.96,952.70 997.92,955.12 C1004.99,959.43 1024.96,969.43 1026.13,969.99" fill="none" stroke="rgb(255, 255, 255)" stroke-width="36.62" stroke-opacity="1.00" stroke-linejoin="round"/>
<path d="M970.56,931.56 C972.79,935.41 981.33,943.51 988.32,948.34 C990.86,950.08 1006.36,959.85 1012.68,963.46 C1018.79,966.71 1031.72,973.38 1038.53,976.81 C1046.07,980.40 1054.78,984.53 1055.94,985.07" fill="none" stroke="rgb(255, 255, 255)" stroke-width="36.62" stroke-opacity="1.00" stroke-linejoin="round"/>
<path d="M970.82,934.56 C970.69,935.55 971.26,938.15 972.21,939.82 C973.12,941.39 978.80,946.47 981.20,948.61 C984.31,951.28 998.85,959.97 1005.66,963.77 C1011.66,966.93 1024.32,973.12 1031.65,976.46 C1035.79,978.26 1043.37,981.52 1046.80,982.98 C1047.53,983.29 1048.26,983.60 1048.99,983.91" fill="none" stroke="rgb(255, 255, 255)" stroke-width="36.62" stroke-opacity="1.00" stroke-linejoin="round"/>
<path d="M990.11,715.13 C993.37,714.41 1001.20,713.86 1008.70,714.16 C1010.59,714.24 1012.10,714.44 1014.45,714.89 C1019.41,715.73 1025.98,715.60 1027.85,715.97 C1032.60,716.92 1046.04,722.08 1051.77,723.53 C1065.52,727.11 1088.27,743.00 1097.04,748.93 C1098.99,750.34 1117.61,770.03 1118.91,771.66 C1120.75,773.97 1132.22,787.42 1135.78,792.64 C1136.94,794.34 1144.76,807.67 1149.58,814.73 C1153.98,820.74 1159.10,827.79 1163.53,835.29 C1171.57,848.40 1175.89,857.73 1185.98,876.25 C1186.86,878.01 1188.55,881.93 1189.23,883.86 C1189.58,884.86 1190.81,888.99 1191.18,890.23" fill="none" stroke="rgb(255, 255, 255)" stroke-width="36.62" stroke-opacity="1.00" stroke-linejoin="round"/>
<path d="M1210.20,896.51" fill="none" stroke="rgb(255, 255, 255)" stroke-width="36.62" stroke-opacity="1.00" stroke-linejoin="round"/>
<path d="M1210.24,896.75 L1361.67,711.68" fill="none" stroke="rgb(255, 255, 255)" stroke-width="36.62" stroke-opacity="1.00" stroke-linejoin="round"/>
<path d="M1361.55,711.35 C1361.55,711.35 1361.12,712.12 1361.12,712.12" fill="none" stroke="rgb(255, 255, 255)" stroke-width="36.62" stroke-opacity="1.00" stroke-linejoin="round"/>
<path d="M1361.12,712.12 L1194.59,904.77" fill="none" stroke="rgb(255, 255, 255)" stroke-width="36.62" stroke-opacity="1.00" stroke-linejoin="round"/>
<path d="M1194.59,904.77" fill="none" stroke="rgb(255, 255, 255)" stroke-width="36.62" stroke-opacity="1.00" stroke-linejoin="round"/>
<path d="M1352.22,557.64" fill="none" stroke="rgb(255, 255, 255)" stroke-width="36.62" stroke-opacity="1.00" stroke-linejoin="round"/>
<path d="M1352.37,553.42 C1352.37,553.42 1351.79,551.18 1351.79,551.18 C1350.99,552.64 1350.64,553.73 1350.46,555.76 C1349.84,562.51 1347.33,604.09 1346.26,622.30 C1345.71,632.98 1345.47,643.27 1345.89,647.97 C1346.05,649.74 1346.40,652.62 1346.62,654.14" fill="none" stroke="rgb(255, 255, 255)" stroke-width="36.62" stroke-opacity="1.00" stroke-linejoin="round"/>
<path d="M1211.30,627.46 C1213.65,628.11 1218.11,628.09 1221.86,627.49 C1228.52,626.33 1255.19,619.71 1257.89,618.64 C1262.25,616.91 1268.51,613.67 1269.62,613.21 C1271.30,612.53 1280.35,609.97 1281.87,609.70 C1283.18,609.46 1291.25,608.29 1293.62,607.00 C1294.61,606.42 1295.40,604.88 1295.61,603.33 C1296.05,599.49 1296.26,592.42 1296.36,588.61 C1296.47,579.93 1295.58,569.42 1295.33,566.59" fill="none" stroke="rgb(255, 255, 255)" stroke-width="36.62" stroke-opacity="1.00" stroke-linejoin="round"/>
<path d="M1303.69,567.62 C1303.58,568.01 1303.05,569.78 1302.64,571.16 C1301.53,575.09 1299.92,581.97 1299.11,585.46 C1298.32,588.75 1296.89,594.75 1296.24,597.45" fill="none" stroke="rgb(255, 255, 255)" stroke-width="36.62" stroke-opacity="1.00" stroke-linejoin="round"/>
<path d="M1277.69,618.00 C1281.79,616.79 1286.72,614.57 1289.52,613.32 C1291.09,612.64 1294.45,611.19 1294.77,611.04 C1295.05,610.90 1295.52,610.63 1296.19,610.24" fill="none" stroke="rgb(255, 255, 255)" stroke-width="36.62" stroke-opacity="1.00" stroke-linejoin="round"/>
<path d="M1167.32,620.85 C1167.32,620.85 1172.70,625.27 1172.70,625.27 C1174.12,628.36 1175.10,633.29 1175.19,633.48 C1175.54,634.14 1176.98,634.97 1177.27,635.06 C1180.20,635.92 1184.42,635.54 1186.58,634.81" fill="none" stroke="rgb(255, 255, 255)" stroke-width="36.62" stroke-opacity="1.00" stroke-linejoin="round"/>
<path d="M1123.80,529.48 C1123.93,529.57 1123.92,529.80 1123.76,530.17 C1123.60,530.53 1123.06,531.55 1122.15,533.22 C1122.68,534.76 1123.68,539.22 1124.32,540.31 C1128.35,546.06 1130.11,550.22 1131.18,553.65 C1131.18,553.65 1127.21,543.04 1127.21,543.04 C1128.51,545.16 1128.83,545.94 1128.62,546.75 C1128.32,548.12 1133.37,557.72 1137.36,565.34 C1139.06,568.71 1140.50,573.13 1140.92,574.40 C1140.92,574.40 1134.66,552.94 1134.66,552.94 C1136.13,557.68 1141.00,570.81 1143.69,577.95 C1147.45,587.85 1149.34,590.93 1156.71,602.03 C1162.16,610.57 1164.64,615.36 1168.79,624.64 C1170.22,627.88 1173.77,635.84 1174.34,637.04 C1175.41,639.28 1176.74,641.95 1177.50,643.39" fill="none" stroke="rgb(255, 255, 255)" stroke-width="36.62" stroke-opacity="1.00" stroke-linejoin="round"/>
<path d="M1187.35,478.45 C1186.79,478.77 1186.11,479.37 1185.48,480.17 C1185.31,480.38 1184.99,480.81 1184.54,481.44" fill="none" stroke="rgb(255, 255, 255)" stroke-width="36.62" stroke-opacity="1.00" stroke-linejoin="round"/>
<path d="M1163.93,491.07 C1166.36,488.63 1169.62,484.05 1170.80,481.91 C1171.22,481.14 1174.11,475.82 1177.78,471.57 C1177.68,471.82 1173.30,473.25 1170.71,474.83 C1167.74,476.67 1158.08,486.00 1154.91,489.10 C1155.72,488.80 1161.28,485.01 1161.67,484.71 C1163.83,483.02 1184.34,460.83 1187.92,457.30 C1188.25,456.96 1207.04,441.83 1214.25,436.04 C1218.27,432.85 1234.18,426.17 1235.98,425.55 C1237.94,424.90 1242.90,424.31 1247.13,423.97 C1251.73,423.63 1255.69,423.80 1259.43,424.57 C1260.26,424.74 1263.37,425.35 1264.43,425.55" fill="none" stroke="rgb(255, 255, 255)" stroke-width="36.62" stroke-opacity="1.00" stroke-linejoin="round"/>
<path d="M925.51,603.00 C925.51,603.00 926.10,602.18 926.10,602.18 C928.21,606.83 934.08,619.26 937.83,627.06 C945.20,641.64 961.85,674.59 965.15,681.48 C971.31,695.12 978.55,711.04 979.63,713.32" fill="none" stroke="rgb(255, 255, 255)" stroke-width="36.62" stroke-opacity="1.00" stroke-linejoin="round"/>
<path d="M961.70,650.93 C962.48,655.16 970.92,672.48 974.95,680.62 C975.84,682.41 977.51,685.77 978.28,687.33 C979.27,689.33 980.75,692.44 981.56,694.25 C981.81,694.83 982.12,695.57 982.49,696.48" fill="none" stroke="rgb(255, 255, 255)" stroke-width="36.62" stroke-opacity="1.00" stroke-linejoin="round"/>
<path d="M1006.22,730.67 C1006.22,730.67 1005.37,728.93 1005.37,728.93 C1006.78,729.39 1007.69,729.78 1009.52,730.71 C1020.36,736.18 1026.04,738.47 1027.93,738.67 C1022.72,736.74 1010.81,732.24 1003.26,729.21 C1002.51,728.90 1001.77,728.60 1001.02,728.29" fill="none" stroke="rgb(255, 255, 255)" stroke-width="36.62" stroke-opacity="1.00" stroke-linejoin="round"/>
<path d="M742.92,530.22 C744.30,529.99 751.42,529.78 754.89,528.46 C755.20,528.34 758.80,526.63 759.67,526.35 C760.23,526.17 776.04,522.88 781.44,522.92 C784.39,522.97 798.50,525.51 799.90,525.39 C799.90,525.39 797.62,525.33 797.62,525.33 C801.31,524.51 806.61,524.31 809.58,524.20 C814.17,523.97 816.80,524.16 819.75,524.81 C832.25,527.62 839.53,528.57 846.39,529.46 C848.96,529.81 854.81,530.64 856.31,531.48 C857.95,532.42 872.31,538.29 874.14,538.89 C878.09,540.22 888.16,545.05 888.43,545.21 C888.51,545.25 894.68,551.74 896.28,553.06 C902.79,558.37 908.45,560.62 912.15,564.00 C913.61,565.20 918.03,569.11 919.68,570.83 C924.84,576.27 930.46,585.77 932.72,589.57" fill="none" stroke="rgb(255, 255, 255)" stroke-width="36.62" stroke-opacity="1.00" stroke-linejoin="round"/>
<path d="M924.39,587.43 C924.07,590.11 925.10,594.59 927.24,598.62 C929.28,602.41 939.14,618.51 941.98,623.91 C945.02,629.71 952.10,645.92 953.40,648.33" fill="none" stroke="rgb(255, 255, 255)" stroke-width="36.62" stroke-opacity="1.00" stroke-linejoin="round"/>
<path d="M928.72,594.45 C930.07,596.95 939.30,610.64 943.53,617.67 C947.20,624.00 954.90,638.14 956.60,642.11 C958.33,646.21 963.74,657.64 965.11,660.47" fill="none" stroke="rgb(255, 255, 255)" stroke-width="36.62" stroke-opacity="1.00" stroke-linejoin="round"/>
<path d="M935.47,594.52 C942.53,613.66 949.74,629.73 952.86,636.75 C954.10,639.54 956.37,644.67 957.41,647.01" fill="none" stroke="rgb(255, 255, 255)" stroke-width="36.62" stroke-opacity="1.00" stroke-linejoin="round"/>
<path d="M373.66,1332.63" fill="none" stroke="rgb(255, 255, 255)" stroke-width="36.62" stroke-opacity="1.00" stroke-linejoin="round"/>
<path d="M373.66,1332.63 L636.02,1340.24" fill="none" stroke="rgb(255, 255, 255)" stroke-width="36.62" stroke-opacity="1.00" stroke-linejoin="round"/>
<path d="M636.02,1340.24 C636.02,1340.24 637.09,1340.54 637.09,1340.54" fill="none" stroke="rgb(255, 255, 255)" stroke-width="36.62" stroke-opacity="1.00" stroke-linejoin="round"/>
<path d="M613.47,1106.02 C613.35,1104.18 620.33,1090.52 621.27,1087.12 C621.89,1084.78 623.06,1080.88 624.17,1079.00 C626.59,1074.76 632.88,1063.98 637.62,1059.35 C644.30,1052.89 647.29,1050.64 654.84,1046.33 C658.27,1045.41 662.47,1045.64 664.63,1046.11 C669.93,1047.32 679.44,1053.16 685.67,1058.12 C687.75,1059.79 690.86,1062.66 692.91,1064.03 C694.09,1064.80 703.21,1070.22 704.72,1071.46 C710.51,1076.24 733.80,1093.26 736.70,1096.03 C740.31,1100.14 744.75,1105.06 752.96,1112.31 C757.20,1116.08 763.57,1122.31 771.34,1129.46 C778.46,1135.82 829.39,1171.15 832.22,1172.84" fill="none" stroke="rgb(255, 255, 255)" stroke-width="36.62" stroke-opacity="1.00" stroke-linejoin="round"/>
<path d="M816.21,1160.20" fill="none" stroke="rgb(255, 255, 255)" stroke-width="36.62" stroke-opacity="1.00" stroke-linejoin="round"/>
<path d="M816.21,1160.20 L712.52,1077.11" fill="none" stroke="rgb(255, 255, 255)" stroke-width="36.62" stroke-opacity="1.00" stroke-linejoin="round"/>
<path d="M712.52,1077.11" fill="none" stroke="rgb(255, 255, 255)" stroke-width="36.62" stroke-opacity="1.00" stroke-linejoin="round"/>
<path d="M754.51,1110.99 C754.51,1110.99 756.40,1111.30 756.40,1111.30" fill="none" stroke="rgb(255, 255, 255)" stroke-width="36.62" stroke-opacity="1.00" stroke-linejoin="round"/>
<path d="M766.06,1119.11" fill="none" stroke="rgb(255, 255, 255)" stroke-width="36.62" stroke-opacity="1.00" stroke-linejoin="round"/>
<path d="M766.19,1118.98 L679.57,1047.44" fill="none" stroke="rgb(255, 255, 255)" stroke-width="36.62" stroke-opacity="1.00" stroke-linejoin="round"/>
<path d="M679.57,1047.44 C679.57,1047.44 681.25,1046.72 681.25,1046.72" fill="none" stroke="rgb(255, 255, 255)" stroke-width="36.62" stroke-opacity="1.00" stroke-linejoin="round"/>
<path d="M681.25,1046.72 L749.36,1100.42" fill="none" stroke="rgb(255, 255, 255)" stroke-width="36.62" stroke-opacity="1.00" stroke-linejoin="round"/>
<path d="M749.58,1100.42" fill="none" stroke="rgb(255, 255, 255)" stroke-width="36.62" stroke-opacity="1.00" stroke-linejoin="round"/>
<path d="M799.95,803.31" fill="none" stroke="rgb(255, 255, 255)" stroke-width="36.62" stroke-opacity="1.00" stroke-linejoin="round"/>
<path d="M799.95,803.31 L712.61,708.57" fill="none" stroke="rgb(255, 255, 255)" stroke-width="36.62" stroke-opacity="1.00" stroke-linejoin="round"/>
<path d="M712.15,708.01" fill="none" stroke="rgb(255, 255, 255)" stroke-width="36.62" stroke-opacity="1.00" stroke-linejoin="round"/>
<path d="M753.61,747.87 C752.99,747.78 739.50,739.95 732.23,735.83 C729.00,734.06 721.34,729.93 719.48,729.02 C716.63,727.66 711.12,725.05 708.46,723.81" fill="none" stroke="rgb(255, 255, 255)" stroke-width="36.62" stroke-opacity="1.00" stroke-linejoin="round"/>
<path d="M459.05,922.64 C460.95,920.94 468.93,907.34 473.16,900.29 C475.26,897.00 479.42,890.59 481.45,887.63 C484.94,882.64 490.76,875.41 491.41,874.61" fill="none" stroke="rgb(255, 255, 255)" stroke-width="36.62" stroke-opacity="1.00" stroke-linejoin="round"/>
<path d="M468.97,903.02 C472.29,896.03 476.95,887.03 480.76,881.26 C483.00,877.96 488.49,870.09 489.95,868.11 C492.60,864.55 497.66,858.19 499.66,855.69" fill="none" stroke="rgb(255, 255, 255)" stroke-width="36.62" stroke-opacity="1.00" stroke-linejoin="round"/>
<path d="M483.27,880.00 C485.41,876.88 491.12,867.46 496.92,859.03 C501.32,852.87 510.35,840.89 514.77,835.08 C515.68,833.89 517.14,831.96 517.70,831.22" fill="none" stroke="rgb(255, 255, 255)" stroke-width="36.62" stroke-opacity="1.00" stroke-linejoin="round"/>
<path d="M500.51,851.00 C502.47,848.32 512.61,832.71 517.00,826.01 C519.10,822.91 532.44,804.53 533.04,803.69" fill="none" stroke="rgb(255, 255, 255)" stroke-width="36.62" stroke-opacity="1.00" stroke-linejoin="round"/>
<path d="M515.00,828.39 C515.00,828.39 514.61,829.69 514.61,829.69 C516.93,827.06 526.84,812.79 531.90,805.90 C534.44,802.65 538.65,797.27 540.33,795.16" fill="none" stroke="rgb(255, 255, 255)" stroke-width="36.62" stroke-opacity="1.00" stroke-linejoin="round"/>
<path d="M528.42,813.62 C528.42,813.62 513.89,831.89 513.89,831.89 C513.89,831.89 530.65,810.63 530.65,810.63" fill="none" stroke="rgb(255, 255, 255)" stroke-width="36.62" stroke-opacity="1.00" stroke-linejoin="round"/>
<path d="M551.80,787.17 C547.83,792.37 538.62,804.39 533.37,811.20 C527.57,818.43 520.07,827.74 518.37,829.82 C518.37,829.82 521.00,826.30 521.00,826.30" fill="none" stroke="rgb(255, 255, 255)" stroke-width="36.62" stroke-opacity="1.00" stroke-linejoin="round"/>
<path d="M535.08,801.29 C535.08,801.29 518.44,821.94 518.44,821.94 C520.49,820.71 533.07,807.61 539.14,801.26 C544.88,795.42 554.89,785.40 559.17,781.22 C562.57,777.77 566.28,773.87 567.17,772.94" fill="none" stroke="rgb(255, 255, 255)" stroke-width="36.62" stroke-opacity="1.00" stroke-linejoin="round"/>
<path d="M526.55,812.25 C528.54,810.32 540.72,795.51 542.86,793.10 C545.67,789.94 554.58,781.16 555.37,780.36" fill="none" stroke="rgb(255, 255, 255)" stroke-width="36.62" stroke-opacity="1.00" stroke-linejoin="round"/>
<path d="M537.44,796.09 C539.41,795.07 544.45,791.21 547.39,788.94 C560.63,778.49 576.32,766.10 578.77,764.16 C581.48,761.95 584.84,759.21 585.48,758.68" fill="none" stroke="rgb(255, 255, 255)" stroke-width="36.62" stroke-opacity="1.00" stroke-linejoin="round"/>
<path d="M550.59,788.84 C550.59,788.84 545.51,792.71 545.51,792.71 C551.09,788.12 563.09,778.20 569.41,772.73 C574.94,767.73 581.28,762.01 582.07,761.28" fill="none" stroke="rgb(255, 255, 255)" stroke-width="36.62" stroke-opacity="1.00" stroke-linejoin="round"/>
<path d="M557.49,779.61 C561.52,775.51 571.99,767.40 581.96,760.47 C585.34,758.19 593.47,752.77 595.90,751.23 C596.77,750.68 599.66,748.94 600.52,748.42" fill="none" stroke="rgb(255, 255, 255)" stroke-width="36.62" stroke-opacity="1.00" stroke-linejoin="round"/>
<path d="M567.28,769.28 C572.81,765.79 585.08,758.14 591.82,753.96 C594.88,752.14 600.14,749.03 602.34,747.75 C603.79,746.90 606.09,745.58 606.93,745.09" fill="none" stroke="rgb(255, 255, 255)" stroke-width="36.62" stroke-opacity="1.00" stroke-linejoin="round"/>
<path d="M585.59,756.13 C591.35,753.21 603.22,747.28 608.58,744.75 C614.86,741.97 627.89,736.53 633.03,734.42" fill="none" stroke="rgb(255, 255, 255)" stroke-width="36.62" stroke-opacity="1.00" stroke-linejoin="round"/>
<path d="M617.49,735.94 C624.51,732.32 636.54,726.97 643.12,724.99 C645.02,724.42 652.70,722.46 655.38,721.79" fill="none" stroke="rgb(255, 255, 255)" stroke-width="36.62" stroke-opacity="1.00" stroke-linejoin="round"/>
<path d="M620.76,727.05 C629.08,724.43 637.43,722.42 647.33,720.53 C653.46,719.43 666.51,717.38 672.59,716.47 C678.84,715.45 686.04,714.27 686.98,714.11" fill="none" stroke="rgb(255, 255, 255)" stroke-width="36.62" stroke-opacity="1.00" stroke-linejoin="round"/>
<path d="M661.05,716.84 C663.69,716.54 675.45,716.77 679.21,716.87 C682.89,716.97 687.58,717.12 688.60,717.15" fill="none" stroke="rgb(255, 255, 255)" stroke-width="36.62" stroke-opacity="1.00" stroke-linejoin="round"/>
<path d="M684.34,715.71 C691.53,715.03 702.77,714.00 706.82,713.64 C708.39,713.51 710.90,713.31 711.84,713.23" fill="none" stroke="rgb(255, 255, 255)" stroke-width="36.62" stroke-opacity="1.00" stroke-linejoin="round"/>
<path d="M642.87,724.26 C651.23,722.09 660.40,720.69 671.64,719.71 C681.49,718.94 690.74,718.46 694.57,718.26" fill="none" stroke="rgb(255, 255, 255)" stroke-width="36.62" stroke-opacity="1.00" stroke-linejoin="round"/>
<path d="M964.74,688.38 C964.74,688.38 966.57,686.14 966.57,686.14 C972.69,694.95 976.59,701.78 980.29,711.78 C982.80,718.79 987.65,732.39 989.99,738.99 C990.79,741.30 991.99,744.78 992.40,745.96" fill="none" stroke="rgb(255, 255, 255)" stroke-width="36.62" stroke-opacity="1.00" stroke-linejoin="round"/>
<path d="M975.10,684.30 C975.11,684.47 980.80,699.79 983.05,706.34 C987.36,719.88 992.30,740.97 993.96,748.41 C994.28,749.82 994.79,752.09 994.98,752.94" fill="none" stroke="rgb(255, 255, 255)" stroke-width="36.62" stroke-opacity="1.00" stroke-linejoin="round"/>
<path d="M973.39,686.03 C978.05,693.25 983.30,702.51 985.85,708.51 C987.56,712.57 993.71,729.30 996.00,736.07 C997.15,739.62 999.22,746.99 1000.24,750.75 C1001.18,754.51 1002.72,760.71 1003.32,763.14" fill="none" stroke="rgb(255, 255, 255)" stroke-width="36.62" stroke-opacity="1.00" stroke-linejoin="round"/>
<path d="M829.54,412.71 C832.42,408.98 844.20,397.36 849.16,392.55 C854.34,387.78 862.06,380.69 864.60,378.36" fill="none" stroke="rgb(255, 255, 255)" stroke-width="36.62" stroke-opacity="1.00" stroke-linejoin="round"/>
<path d="M830.58,401.18 C832.41,399.35 846.31,388.13 852.79,382.93 C861.21,376.30 870.72,369.47 876.73,365.39 C880.40,362.93 889.15,357.58 889.94,357.10" fill="none" stroke="rgb(255, 255, 255)" stroke-width="36.62" stroke-opacity="1.00" stroke-linejoin="round"/>
<path d="M836.09,402.02 C841.89,397.25 854.30,387.14 860.90,381.80 C863.19,380.02 868.56,376.25 871.32,374.34 C877.93,369.91 887.36,363.86 890.01,362.19" fill="none" stroke="rgb(255, 255, 255)" stroke-width="36.62" stroke-opacity="1.00" stroke-linejoin="round"/>
<path d="M845.61,397.98 C849.13,395.03 856.74,388.11 865.53,381.08 C871.44,376.48 881.91,369.45 890.36,364.21 C893.59,362.28 899.11,359.04 901.39,357.73" fill="none" stroke="rgb(255, 255, 255)" stroke-width="36.62" stroke-opacity="1.00" stroke-linejoin="round"/>
<path d="M838.34,405.37 C845.29,398.66 867.02,382.33 875.23,376.37 C878.50,374.11 882.60,371.27 883.43,370.70" fill="none" stroke="rgb(255, 255, 255)" stroke-width="36.62" stroke-opacity="1.00" stroke-linejoin="round"/>
<path d="M970.97,314.33 C973.27,312.07 978.73,308.31 981.99,306.06 C985.60,303.66 992.69,299.12 996.02,297.16 C998.93,295.47 1002.73,293.28 1003.62,292.76" fill="none" stroke="rgb(255, 255, 255)" stroke-width="36.62" stroke-opacity="1.00" stroke-linejoin="round"/>
<path d="M1003.88,290.06 C1009.99,286.93 1022.54,281.80 1029.42,279.03 C1032.74,277.76 1045.81,273.10 1050.66,271.35" fill="none" stroke="rgb(255, 255, 255)" stroke-width="36.62" stroke-opacity="1.00" stroke-linejoin="round"/>
<path d="M1002.68,288.15 C1010.26,284.02 1032.39,274.67 1039.06,271.95 C1045.58,269.33 1054.19,265.85 1056.28,265.00" fill="none" stroke="rgb(255, 255, 255)" stroke-width="36.62" stroke-opacity="1.00" stroke-linejoin="round"/>
<path d="M988.66,294.23 C1003.49,285.34 1017.50,279.25 1026.11,275.96 C1032.74,273.54 1044.17,269.32 1048.95,267.50" fill="none" stroke="rgb(255, 255, 255)" stroke-width="36.62" stroke-opacity="1.00" stroke-linejoin="round"/>
<path d="M988.42,296.09 C995.27,291.46 1003.56,287.17 1011.83,283.36 C1020.36,279.64 1047.38,269.30 1053.90,266.61 C1056.45,265.53 1061.06,263.45 1061.95,263.05" fill="none" stroke="rgb(255, 255, 255)" stroke-width="36.62" stroke-opacity="1.00" stroke-linejoin="round"/>
<path d="M990.31,297.45 C998.85,292.48 1009.47,287.19 1017.10,283.95 C1023.86,281.25 1038.07,275.64 1045.52,272.72 C1053.20,269.62 1064.60,265.00 1068.31,263.47" fill="none" stroke="rgb(255, 255, 255)" stroke-width="36.62" stroke-opacity="1.00" stroke-linejoin="round"/>
<path d="M998.31,296.59 C1007.23,291.53 1015.28,287.47 1024.55,283.39 C1031.08,280.71 1044.58,275.12 1051.55,272.23 C1055.03,270.73 1061.00,268.15 1063.49,267.08 C1064.51,266.62 1065.53,266.16 1066.56,265.70" fill="none" stroke="rgb(255, 255, 255)" stroke-width="36.62" stroke-opacity="1.00" stroke-linejoin="round"/>
<path d="M1022.83,282.18 C1052.31,269.79 1096.35,251.45 1110.92,245.50 C1114.76,244.00 1126.29,239.95 1129.28,238.91" fill="none" stroke="rgb(255, 255, 255)" stroke-width="36.62" stroke-opacity="1.00" stroke-linejoin="round"/>
<path d="M1047.59,272.39 C1055.05,268.70 1084.84,255.78 1099.29,249.87 C1113.88,244.13 1136.79,235.87 1148.15,232.22 C1150.41,231.51 1154.01,230.38 1155.36,229.95" fill="none" stroke="rgb(255, 255, 255)" stroke-width="36.62" stroke-opacity="1.00" stroke-linejoin="round"/>
<path d="M1035.96,278.74 C1041.25,276.37 1054.12,270.72 1061.69,267.43 C1069.65,264.16 1084.30,258.25 1091.00,255.60 C1097.60,253.07 1109.76,248.82 1116.80,246.39 C1124.05,243.90 1132.38,241.04 1133.46,240.67" fill="none" stroke="rgb(255, 255, 255)" stroke-width="36.62" stroke-opacity="1.00" stroke-linejoin="round"/>
<path d="M1067.35,266.76 C1075.59,263.16 1111.01,250.39 1126.34,245.38 C1134.18,242.92 1149.41,238.24 1156.80,236.02 C1159.78,235.16 1165.96,233.56 1167.89,233.06" fill="none" stroke="rgb(255, 255, 255)" stroke-width="36.62" stroke-opacity="1.00" stroke-linejoin="round"/>
<path d="M1090.91,260.79 C1099.31,257.43 1130.45,246.69 1145.60,241.62 C1161.67,236.64 1191.92,229.53 1203.93,227.36 C1207.11,226.81 1213.74,225.70 1217.19,225.14 C1218.68,224.91 1221.08,224.54 1222.00,224.39" fill="none" stroke="rgb(255, 255, 255)" stroke-width="36.62" stroke-opacity="1.00" stroke-linejoin="round"/>
<path d="M1150.51,241.07 C1164.51,236.70 1186.35,231.74 1194.08,230.05 C1197.12,229.41 1201.77,228.40 1203.39,228.04" fill="none" stroke="rgb(255, 255, 255)" stroke-width="36.62" stroke-opacity="1.00" stroke-linejoin="round"/>
<path d="M1180.09,233.19 C1199.83,228.50 1221.50,224.63 1236.62,222.02 C1243.39,220.94 1256.12,218.96 1262.08,218.07 C1266.36,217.39 1274.53,216.08 1278.42,215.45 C1279.24,215.32 1280.07,215.18 1280.90,215.05" fill="none" stroke="rgb(255, 255, 255)" stroke-width="36.62" stroke-opacity="1.00" stroke-linejoin="round"/>
<path d="M1220.12,224.53 C1227.97,223.65 1261.38,221.88 1277.56,221.21 C1285.50,220.95 1301.08,220.42 1308.71,220.14 C1312.51,219.96 1318.29,219.68 1320.28,219.57" fill="none" stroke="rgb(255, 255, 255)" stroke-width="36.62" stroke-opacity="1.00" stroke-linejoin="round"/>
<path d="M1297.93,223.09 C1311.30,222.92 1334.96,223.32 1342.79,223.52 C1346.03,223.60 1353.73,223.82 1358.18,223.94 C1360.96,224.03 1364.57,224.14 1365.40,224.17" fill="none" stroke="rgb(255, 255, 255)" stroke-width="36.62" stroke-opacity="1.00" stroke-linejoin="round"/>
<path d="M1202.79,230.11 C1212.62,227.66 1220.81,225.98 1231.03,224.44 C1235.07,223.88 1240.33,223.16 1241.54,223.00" fill="none" stroke="rgb(255, 255, 255)" stroke-width="36.62" stroke-opacity="1.00" stroke-linejoin="round"/>
<path d="M1413.24,548.01 C1414.41,555.36 1417.51,575.24 1418.05,579.65 C1418.42,582.64 1419.30,595.65 1419.48,598.83 C1419.52,599.78 1419.57,600.73 1419.61,601.68" fill="none" stroke="rgb(255, 255, 255)" stroke-width="36.62" stroke-opacity="1.00" stroke-linejoin="round"/>
<path d="M1417.61,562.13 C1418.18,568.34 1419.40,583.02 1420.07,591.48 C1420.59,600.57 1421.07,612.73 1421.19,616.25 C1421.27,620.04 1421.37,625.20 1421.38,626.56" fill="none" stroke="rgb(255, 255, 255)" stroke-width="36.62" stroke-opacity="1.00" stroke-linejoin="round"/>
<path d="M1421.26,582.12 C1422.15,595.53 1424.20,623.84 1424.01,636.50 C1423.93,639.76 1423.73,647.23 1423.60,651.45 C1423.50,655.15 1423.33,663.54 1423.33,666.00" fill="none" stroke="rgb(255, 255, 255)" stroke-width="36.62" stroke-opacity="1.00" stroke-linejoin="round"/>
<path d="M1425.42,602.18 C1425.67,608.64 1426.24,623.36 1426.56,631.63 C1426.92,642.97 1426.85,664.16 1426.83,667.20 C1426.82,668.47 1426.80,670.50 1426.79,671.25" fill="none" stroke="rgb(255, 255, 255)" stroke-width="36.62" stroke-opacity="1.00" stroke-linejoin="round"/>
<path d="M1423.83,589.28 C1424.42,596.88 1425.64,611.82 1426.27,619.16 C1426.86,627.61 1427.23,643.17 1427.11,648.14 C1427.05,650.56 1426.67,658.37 1426.52,661.05" fill="none" stroke="rgb(255, 255, 255)" stroke-width="36.62" stroke-opacity="1.00" stroke-linejoin="round"/>
<path d="M1421.12,578.59 C1421.85,582.29 1423.63,599.59 1424.00,605.49 C1424.24,609.86 1424.38,624.26 1424.19,631.67" fill="none" stroke="rgb(255, 255, 255)" stroke-width="36.62" stroke-opacity="1.00" stroke-linejoin="round"/>
<path d="M1427.15,659.53 C1427.50,668.56 1427.17,678.18 1426.24,689.65 C1425.34,699.40 1423.94,706.93 1423.02,713.15" fill="none" stroke="rgb(255, 255, 255)" stroke-width="36.62" stroke-opacity="1.00" stroke-linejoin="round"/>
<path d="M1425.42,675.69 C1425.14,683.48 1424.39,702.91 1424.17,706.20 C1423.48,715.99 1419.53,738.73 1418.15,746.20 C1417.47,749.73 1416.57,754.31 1416.37,755.36" fill="none" stroke="rgb(255, 255, 255)" stroke-width="36.62" stroke-opacity="1.00" stroke-linejoin="round"/>
<path d="M1428.06,701.79 C1427.70,708.60 1426.89,722.39 1426.40,728.27 C1425.62,735.25 1423.95,749.24 1423.06,756.23 C1422.82,758.19 1422.46,761.18 1422.34,762.20" fill="none" stroke="rgb(255, 255, 255)" stroke-width="36.62" stroke-opacity="1.00" stroke-linejoin="round"/>
<path d="M1426.67,697.11 C1426.45,698.62 1425.90,702.40 1425.58,704.67 C1425.32,706.49 1424.86,709.73 1424.66,711.16 C1424.61,711.55 1424.56,711.93 1424.51,712.31" fill="none" stroke="rgb(255, 255, 255)" stroke-width="36.62" stroke-opacity="1.00" stroke-linejoin="round"/>
<path d="M1426.67,694.68 C1426.67,694.68 1425.01,708.84 1425.01,708.84" fill="none" stroke="rgb(255, 255, 255)" stroke-width="36.62" stroke-opacity="1.00" stroke-linejoin="round"/>
<path d="M1426.45,691.20 C1426.22,692.44 1425.85,694.99 1425.62,697.04 C1425.44,698.70 1424.81,706.81 1424.70,708.28" fill="none" stroke="rgb(255, 255, 255)" stroke-width="36.62" stroke-opacity="1.00" stroke-linejoin="round"/>
<path d="M1421.74,608.03 C1421.74,608.03 1422.18,615.64 1422.18,615.64" fill="none" stroke="rgb(255, 255, 255)" stroke-width="36.62" stroke-opacity="1.00" stroke-linejoin="round"/>
<path d="M1423.40,608.28 C1423.40,608.28 1422.78,617.69 1422.78,617.69" fill="none" stroke="rgb(255, 255, 255)" stroke-width="36.62" stroke-opacity="1.00" stroke-linejoin="round"/>
<path d="M1424.63,611.70 C1424.63,611.70 1424.63,617.28 1424.63,617.28" fill="none" stroke="rgb(255, 255, 255)" stroke-width="36.62" stroke-opacity="1.00" stroke-linejoin="round"/>
<path d="M1425.73,611.83 C1425.73,611.83 1425.87,617.85 1425.87,617.85" fill="none" stroke="rgb(255, 255, 255)" stroke-width="36.62" stroke-opacity="1.00" stroke-linejoin="round"/>
<path d="M1425.73,611.09 C1426.23,618.00 1426.43,619.64 1426.86,622.01 C1426.99,622.78 1427.13,623.56 1427.27,624.33" fill="none" stroke="rgb(255, 255, 255)" stroke-width="36.62" stroke-opacity="1.00" stroke-linejoin="round"/>
<path d="M1423.11,755.01 C1422.53,757.54 1420.97,766.64 1420.78,767.96 C1419.96,774.19 1417.94,784.24 1417.31,787.30 C1417.05,788.46 1416.79,789.62 1416.53,790.79" fill="none" stroke="rgb(255, 255, 255)" stroke-width="36.62" stroke-opacity="1.00" stroke-linejoin="round"/>
<path d="M1420.04,771.43 C1419.42,780.68 1417.74,792.60 1416.41,799.58 C1414.87,806.89 1412.44,817.30 1411.65,820.66 C1411.33,822.01 1410.82,824.18 1410.63,825.01" fill="none" stroke="rgb(255, 255, 255)" stroke-width="36.62" stroke-opacity="1.00" stroke-linejoin="round"/>
<path d="M1415.72,808.19 C1413.93,815.60 1409.38,834.11 1408.46,836.75 C1407.47,839.61 1405.43,845.47 1404.38,848.49" fill="none" stroke="rgb(255, 255, 255)" stroke-width="36.62" stroke-opacity="1.00" stroke-linejoin="round"/>
<path d="M1404.96,846.55 C1403.51,851.61 1400.29,861.81 1399.20,865.16 C1398.06,868.56 1396.71,872.10 1396.29,873.12" fill="none" stroke="rgb(255, 255, 255)" stroke-width="36.62" stroke-opacity="1.00" stroke-linejoin="round"/>
<path d="M1402.44,855.65 C1401.32,860.74 1394.12,880.58 1392.50,884.25 C1391.33,886.96 1389.38,891.49 1388.61,893.31" fill="none" stroke="rgb(255, 255, 255)" stroke-width="36.62" stroke-opacity="1.00" stroke-linejoin="round"/>
<path d="M1509.38,1330.74 C1515.87,1328.78 1523.62,1325.26 1532.94,1320.31 C1536.14,1318.53 1540.35,1316.20 1541.34,1315.65" fill="none" stroke="rgb(255, 255, 255)" stroke-width="27.47" stroke-opacity="1.00" stroke-linejoin="round"/>
<path d="M1571.73,1300.84 C1570.62,1301.95 1565.95,1305.09 1563.09,1307.01 C1550.57,1315.36 1535.01,1327.61 1532.89,1329.43 C1532.14,1330.07 1529.25,1332.62 1528.39,1333.39" fill="none" stroke="rgb(255, 255, 255)" stroke-width="27.47" stroke-opacity="1.00" stroke-linejoin="round"/>
<path d="M1546.95,1324.72 C1546.95,1324.72 1541.51,1328.67 1541.51,1328.67 C1542.46,1325.77 1543.19,1324.17 1544.38,1322.85 C1562.39,1303.37 1593.36,1268.83 1604.16,1257.04 C1609.80,1250.74 1619.55,1239.78 1623.65,1235.12" fill="none" stroke="rgb(255, 255, 255)" stroke-width="27.47" stroke-opacity="1.00" stroke-linejoin="round"/>
<path d="M1639.28,1219.45 C1636.63,1223.70 1619.78,1240.95 1604.35,1258.47 C1593.62,1270.22 1578.27,1287.02 1573.15,1292.82 C1571.06,1295.24 1564.27,1303.81 1562.80,1305.67" fill="none" stroke="rgb(255, 255, 255)" stroke-width="27.47" stroke-opacity="1.00" stroke-linejoin="round"/>
<path d="M1640.62,1213.67 C1640.62,1213.67 1640.57,1215.39 1640.57,1215.39" fill="none" stroke="rgb(255, 255, 255)" stroke-width="27.47" stroke-opacity="1.00" stroke-linejoin="round"/>
<path d="M1640.57,1215.39 L1555.22,1312.04" fill="none" stroke="rgb(255, 255, 255)" stroke-width="27.47" stroke-opacity="1.00" stroke-linejoin="round"/>
<path d="M1555.22,1312.04 C1555.22,1312.04 1555.03,1312.93 1555.03,1312.93" fill="none" stroke="rgb(255, 255, 255)" stroke-width="27.47" stroke-opacity="1.00" stroke-linejoin="round"/>
<path d="M1665.67,1097.93 C1668.15,1089.57 1670.14,1081.01 1672.03,1070.98 C1672.55,1068.03 1673.75,1060.93 1674.10,1057.94 C1674.42,1055.07 1674.88,1051.08 1675.01,1049.97" fill="none" stroke="rgb(255, 255, 255)" stroke-width="27.47" stroke-opacity="1.00" stroke-linejoin="round"/>
<path d="M1665.18,1101.86 C1668.59,1085.79 1674.60,1057.24 1675.24,1053.80 C1676.18,1048.13 1677.31,1041.46 1677.48,1040.47" fill="none" stroke="rgb(255, 255, 255)" stroke-width="27.47" stroke-opacity="1.00" stroke-linejoin="round"/>
<path d="M1667.24,1075.74 C1668.11,1070.93 1675.08,1039.71 1676.76,1029.14 C1677.49,1024.07 1678.16,1018.74 1678.32,1017.47" fill="none" stroke="rgb(255, 255, 255)" stroke-width="27.47" stroke-opacity="1.00" stroke-linejoin="round"/>
<path d="M1672.05,1060.47 C1672.41,1057.90 1673.28,1051.79 1673.78,1048.25 C1676.25,1031.02 1678.50,1005.14 1679.68,989.51 C1679.97,984.65 1680.01,980.33 1679.81,975.52 C1679.77,974.25 1679.71,972.21 1679.69,971.43" fill="none" stroke="rgb(255, 255, 255)" stroke-width="27.47" stroke-opacity="1.00" stroke-linejoin="round"/>
<path d="M1675.89,1019.93 C1678.57,989.29 1683.08,934.97 1683.31,929.80 C1683.41,927.63 1683.49,924.56 1683.50,923.06" fill="none" stroke="rgb(255, 255, 255)" stroke-width="27.47" stroke-opacity="1.00" stroke-linejoin="round"/>
<path d="M1679.34,962.50 C1679.86,956.03 1679.91,920.37 1679.73,906.25 C1679.17,883.92 1678.65,858.23 1679.13,853.51 C1679.20,852.49 1679.34,846.31 1679.36,845.62 C1679.38,845.05 1679.43,844.15 1679.50,842.95" fill="none" stroke="rgb(255, 255, 255)" stroke-width="27.47" stroke-opacity="1.00" stroke-linejoin="round"/>
<path d="M1679.27,852.92 C1679.65,845.45 1679.04,817.40 1679.55,811.09 C1679.74,809.02 1680.08,805.44 1680.22,803.93" fill="none" stroke="rgb(255, 255, 255)" stroke-width="27.47" stroke-opacity="1.00" stroke-linejoin="round"/>
<path d="M1679.56,837.66 C1679.53,834.55 1679.72,829.64 1680.12,823.14 C1680.32,819.47 1679.32,807.63 1679.33,798.35 C1679.34,796.80 1679.37,793.98 1679.39,792.71 C1679.41,791.04 1679.43,788.57 1679.44,787.77" fill="none" stroke="rgb(255, 255, 255)" stroke-width="27.47" stroke-opacity="1.00" stroke-linejoin="round"/>
<path d="M1673.79,1067.06 C1674.45,1063.13 1674.21,1045.72 1674.05,1037.27 C1673.95,1025.18 1674.30,1018.44 1674.43,1016.17" fill="none" stroke="rgb(255, 255, 255)" stroke-width="27.47" stroke-opacity="1.00" stroke-linejoin="round"/>
<path d="M1674.34,1067.67 C1673.81,1061.56 1674.12,1046.77 1674.35,1038.55 C1674.55,1033.76 1674.92,1027.39 1675.10,1024.38" fill="none" stroke="rgb(255, 255, 255)" stroke-width="27.47" stroke-opacity="1.00" stroke-linejoin="round"/>
<path d="M1674.15,1040.95 C1674.54,1025.93 1675.53,993.96 1676.13,977.01 C1676.28,973.18 1676.50,967.35 1676.58,965.36" fill="none" stroke="rgb(255, 255, 255)" stroke-width="27.47" stroke-opacity="1.00" stroke-linejoin="round"/>
<path d="M1678.62,931.65 C1678.62,931.65 1679.02,912.91 1679.02,912.91" fill="none" stroke="rgb(255, 255, 255)" stroke-width="27.47" stroke-opacity="1.00" stroke-linejoin="round"/>
<path d="M1678.08,878.43 C1677.77,866.87 1676.69,842.74 1676.31,834.69 C1676.02,827.19 1675.70,818.75 1675.67,817.80" fill="none" stroke="rgb(255, 255, 255)" stroke-width="27.47" stroke-opacity="1.00" stroke-linejoin="round"/>
<path d="M1675.77,822.37 C1675.59,816.65 1671.82,782.39 1671.49,778.06 C1671.29,775.10 1670.90,769.01 1670.69,765.89 C1670.60,764.40 1670.45,761.97 1670.39,761.03" fill="none" stroke="rgb(255, 255, 255)" stroke-width="27.47" stroke-opacity="1.00" stroke-linejoin="round"/>
<path d="M1670.10,772.48 C1669.92,765.96 1665.31,731.03 1664.58,723.25 C1664.44,721.81 1664.19,719.46 1664.09,718.56" fill="none" stroke="rgb(255, 255, 255)" stroke-width="27.47" stroke-opacity="1.00" stroke-linejoin="round"/>
<path d="M1659.56,692.51 C1659.12,689.12 1658.11,681.15 1657.53,676.57 C1657.33,674.96 1656.97,671.91 1656.80,670.46 C1656.77,670.14 1656.73,669.75 1656.69,669.31" fill="none" stroke="rgb(255, 255, 255)" stroke-width="27.47" stroke-opacity="1.00" stroke-linejoin="round"/>
<path d="M1663.93,717.20 C1662.88,710.51 1661.13,699.75 1660.59,691.63 C1659.56,676.36 1655.87,654.46 1655.53,651.89 C1655.45,651.27 1655.37,650.65 1655.30,650.02" fill="none" stroke="rgb(255, 255, 255)" stroke-width="27.47" stroke-opacity="1.00" stroke-linejoin="round"/>
<path d="M1657.58,665.83 C1657.30,662.17 1650.67,623.46 1650.55,622.04 C1650.51,621.49 1650.45,620.47 1650.36,618.97" fill="none" stroke="rgb(255, 255, 255)" stroke-width="27.47" stroke-opacity="1.00" stroke-linejoin="round"/>
<path d="M1653.22,635.04 C1652.62,629.70 1648.47,614.75 1647.67,611.52 C1646.83,608.11 1643.31,591.66 1641.78,585.60 C1640.28,580.73 1636.84,568.58 1634.91,561.32 C1634.37,559.09 1631.68,544.87 1630.14,538.53 C1628.51,530.08 1623.76,514.99 1621.05,506.97 C1619.99,503.86 1617.69,497.10 1616.44,493.46 C1615.67,491.18 1614.65,488.13 1614.40,487.35" fill="none" stroke="rgb(255, 255, 255)" stroke-width="27.47" stroke-opacity="1.00" stroke-linejoin="round"/>
<path d="M1662.75,675.07 C1659.59,661.04 1657.02,640.69 1656.65,637.72 C1656.47,636.27 1656.19,633.96 1656.08,633.11" fill="none" stroke="rgb(255, 255, 255)" stroke-width="27.47" stroke-opacity="1.00" stroke-linejoin="round"/>
<path d="M1658.19,666.06 C1658.19,666.06 1657.34,661.46 1657.34,661.46" fill="none" stroke="rgb(255, 255, 255)" stroke-width="27.47" stroke-opacity="1.00" stroke-linejoin="round"/>
<path d="M1656.96,659.21 C1654.57,646.86 1652.26,628.08 1651.80,624.36 C1651.53,622.25 1651.13,619.19 1651.00,618.24" fill="none" stroke="rgb(255, 255, 255)" stroke-width="27.47" stroke-opacity="1.00" stroke-linejoin="round"/>
<path d="M1656.88,675.15 C1656.70,672.58 1650.49,641.85 1649.92,638.80 C1649.56,636.84 1647.73,624.29 1645.45,613.47 C1645.22,612.46 1641.23,599.11 1639.87,591.86 C1639.03,587.35 1624.78,527.57 1622.67,520.21 C1621.63,516.53 1618.29,495.62 1618.03,494.18 C1617.26,489.90 1608.05,451.64 1607.87,450.82 C1607.45,448.95 1607.04,446.80 1606.90,445.82" fill="none" stroke="rgb(255, 255, 255)" stroke-width="27.47" stroke-opacity="1.00" stroke-linejoin="round"/>
<path d="M1667.15,1081.58 C1667.27,1081.12 1667.37,1080.71 1667.45,1080.36 C1669.86,1069.31 1670.66,1064.09 1671.61,1052.74 C1673.69,1023.46 1674.53,959.40 1674.74,946.26 C1674.71,941.39 1678.81,898.34 1679.25,888.46 C1679.40,882.18 1679.59,869.06 1679.63,862.22 C1679.57,854.88 1679.43,841.03 1679.35,834.52" fill="none" stroke="rgb(255, 255, 255)" stroke-width="27.47" stroke-opacity="1.00" stroke-linejoin="round"/>
<path d="M1158.37,787.01 C1158.13,785.93 1157.13,783.77 1154.50,781.53 C1147.28,775.52 1143.28,771.11 1137.11,763.58 C1135.98,762.17 1131.14,755.70 1129.19,753.65 C1122.46,746.70 1115.96,737.97 1114.58,736.76 C1112.01,734.52 1107.82,730.05 1105.70,728.85 C1105.11,728.53 1104.30,728.27 1104.17,728.26 C1108.44,730.83 1112.70,734.24 1114.55,737.22 C1114.90,737.79 1118.72,744.38 1118.81,744.54 C1113.09,737.59 1107.97,732.74 1101.13,727.61 C1094.41,722.64 1088.93,719.50 1082.24,716.13 C1079.15,714.59 1067.24,709.26 1061.77,707.79 C1058.51,706.93 1056.31,706.67 1054.67,706.58" fill="none" stroke="rgb(255, 255, 255)" stroke-width="12.82" stroke-opacity="1.00" stroke-linejoin="round"/>
<path d="M1196.39,656.25 C1196.39,656.25 1197.04,655.67 1197.04,655.67 C1192.12,657.07 1181.92,658.14 1174.84,657.17 C1172.91,656.89 1166.68,655.66 1164.14,654.31 C1162.93,653.65 1158.43,649.59 1157.64,648.43 C1156.87,647.28 1153.16,640.23 1151.77,637.57 C1151.02,636.11 1150.55,635.25 1149.92,634.20" fill="none" stroke="rgb(255, 255, 255)" stroke-width="12.82" stroke-opacity="1.00" stroke-linejoin="round"/>
<path d="M1270.38,638.54 C1269.08,638.43 1264.86,639.60 1259.93,641.17 C1253.32,643.21 1239.57,645.45 1235.05,646.56 C1228.85,647.96 1194.34,657.18 1192.60,656.86 C1192.83,656.10 1203.79,651.90 1209.59,649.66 C1215.53,647.38 1230.64,644.06 1239.00,642.27 C1246.72,640.86 1256.36,639.44 1262.44,638.50 C1263.68,638.33 1264.53,638.23 1264.97,638.19 C1265.43,638.14 1266.42,638.07 1267.95,637.96" fill="none" stroke="rgb(255, 255, 255)" stroke-width="12.82" stroke-opacity="1.00" stroke-linejoin="round"/>
<path d="M1309.47,743.43 C1309.47,743.43 1309.92,742.80 1309.92,742.80 C1308.00,744.46 1294.03,758.95 1291.66,761.11 C1291.11,761.60 1285.60,766.06 1283.10,768.47 C1281.69,769.82 1280.58,770.99 1279.64,772.05" fill="none" stroke="rgb(255, 255, 255)" stroke-width="12.82" stroke-opacity="1.00" stroke-linejoin="round"/>
<path d="M1326.47,580.87 C1326.44,578.82 1329.59,566.79 1329.63,566.48 C1329.68,566.06 1326.36,559.95 1326.07,558.69 C1326.01,558.44 1325.39,554.79 1325.32,554.55" fill="none" stroke="rgb(255, 255, 255)" stroke-width="12.82" stroke-opacity="1.00" stroke-linejoin="round"/>
<path d="M1302.16,611.73 C1303.74,611.77 1305.73,610.39 1305.91,610.21 C1306.07,610.05 1306.30,609.76 1306.58,609.32" fill="none" stroke="rgb(255, 255, 255)" stroke-width="12.82" stroke-opacity="1.00" stroke-linejoin="round"/>
<path d="M1309.49,603.21 C1309.67,603.85 1309.78,604.35 1309.80,604.72 C1309.95,607.20 1308.10,612.51 1307.09,614.55 C1306.10,616.49 1302.91,620.39 1301.69,621.92 C1301.36,622.30 1296.97,625.84 1295.76,626.97 C1294.77,627.73 1291.52,626.86 1290.28,626.65 C1289.71,626.56 1288.97,626.55 1288.05,626.61" fill="none" stroke="rgb(255, 255, 255)" stroke-width="12.82" stroke-opacity="1.00" stroke-linejoin="round"/>
<path d="M1308.54,609.18 C1309.00,605.74 1310.62,600.95 1311.98,591.17 C1314.54,575.81 1317.19,546.49 1317.29,545.26 C1317.35,544.48 1317.40,543.70 1317.46,542.93" fill="none" stroke="rgb(255, 255, 255)" stroke-width="12.82" stroke-opacity="1.00" stroke-linejoin="round"/>
<path d="M1068.30,721.81 C1066.41,720.66 1062.87,719.39 1059.49,718.63 C1058.24,718.35 1049.15,716.49 1047.21,715.96 C1046.63,715.80 1045.52,715.47 1043.88,714.96" fill="none" stroke="rgb(255, 255, 255)" stroke-width="12.82" stroke-opacity="1.00" stroke-linejoin="round"/>
<path d="M1064.36,719.62 C1064.36,719.62 1064.53,719.91 1064.53,719.91 C1064.32,718.93 1061.89,716.67 1059.91,715.86 C1057.79,715.04 1044.99,710.59 1044.18,710.43 C1043.85,710.37 1043.17,710.31 1042.16,710.23" fill="none" stroke="rgb(255, 255, 255)" stroke-width="12.82" stroke-opacity="1.00" stroke-linejoin="round"/>
<path d="M1063.95,717.33 C1060.97,716.42 1054.26,714.31 1050.52,713.11 C1046.62,711.80 1042.69,710.62 1041.56,710.28" fill="none" stroke="rgb(255, 255, 255)" stroke-width="12.82" stroke-opacity="1.00" stroke-linejoin="round"/>
<path d="M995.05,713.02 C995.05,713.02 994.23,712.01 994.23,712.01 C994.23,712.01 1007.17,718.01 1007.17,718.01 C1007.17,718.01 1000.58,715.14 1000.58,715.14 C1000.58,715.14 1008.05,714.51 1008.05,714.51 C1008.05,714.51 994.10,713.79 994.10,713.79 C994.10,713.79 1002.18,712.33 1002.18,712.33 C1002.18,712.33 991.07,712.20 991.07,712.20 C994.22,712.59 998.08,711.90 999.19,711.44 C999.53,711.30 1000.04,711.00 1000.74,710.56" fill="none" stroke="rgb(255, 255, 255)" stroke-width="12.82" stroke-opacity="1.00" stroke-linejoin="round"/>
<path d="M1840.33,1593.33" fill="none" stroke="rgb(255, 255, 255)" stroke-width="7.00" stroke-opacity="1.00" stroke-linejoin="round"/>
</g>
</svg>
